<svg xmlns="http://www.w3.org/2000/svg" xmlns:xlink="http://www.w3.org/1999/xlink" width="602pt" height="296" viewBox="0 0 601.5 222"><g id="graph0" class="graph" transform="scale(1 1) rotate(0) translate(4 218)"><title>%3</title><polygon fill="#fff" stroke="transparent" points="-4 4 -4 -218 597.5 -218 597.5 4 -4 4"/><g id="node1" class="node"><title>ExpectedResponse</title><polygon fill="#8ccbf2" stroke="transparent" points="8 -25 8 -46 298 -46 298 -25 8 -25"/><polygon fill="none" stroke="#8ccbf2" points="8 -25 8 -46 298 -46 298 -25 8 -25"/><text x="86.5" y="-32.8" fill="#c83500" font-family="mono" font-size="14" font-weight="bold" text-anchor="start">ExpectedResponse</text><polygon fill="#def" stroke="transparent" points="8 -4 8 -25 298 -25 298 -4 8 -4"/><polygon fill="none" stroke="#8ccbf2" points="8 -4 8 -25 298 -25 298 -4 8 -4"/><text x="11" y="-11.8" fill="#c83500" font-family="mono" font-size="14" text-anchor="start">contentType</text><text x="102" y="-11.8" fill="#000" font-family="Times,serif" font-size="14" text-anchor="start">: (Array of)</text><text x="173" y="-11.8" fill="#c83500" font-family="mono" font-size="14" text-anchor="start">string</text><text x="227" y="-11.8" fill="#000" font-family="Times,serif" font-size="14" font-style="italic" text-anchor="start">(mandatory)</text></g><g id="node2" class="node"><title>Form</title><polygon fill="#8ccbf2" stroke="transparent" points="156 -188.5 156 -209.5 391 -209.5 391 -188.5 156 -188.5"/><polygon fill="none" stroke="#8ccbf2" points="156 -188.5 156 -209.5 391 -209.5 391 -188.5 156 -188.5"/><text x="256.5" y="-196.3" fill="#c83500" font-family="mono" font-size="14" font-weight="bold" text-anchor="start">Form</text><polygon fill="#def" stroke="transparent" points="156 -167.5 156 -188.5 391 -188.5 391 -167.5 156 -167.5"/><polygon fill="none" stroke="#8ccbf2" points="156 -167.5 156 -188.5 391 -188.5 391 -167.5 156 -167.5"/><text x="159" y="-175.3" fill="#c83500" font-family="mono" font-size="14" text-anchor="start">contentType</text><text x="250" y="-175.3" fill="#000" font-family="Times,serif" font-size="14" text-anchor="start">: (Array of)</text><text x="321" y="-175.3" fill="#c83500" font-family="mono" font-size="14" text-anchor="start">string</text><polygon fill="#def" stroke="transparent" points="156 -146.5 156 -167.5 391 -167.5 391 -146.5 156 -146.5"/><polygon fill="none" stroke="#8ccbf2" points="156 -146.5 156 -167.5 391 -167.5 391 -146.5 156 -146.5"/><text x="159" y="-154.3" fill="#c83500" font-family="mono" font-size="14" text-anchor="start">contentCoding</text><text x="267" y="-154.3" fill="#000" font-family="Times,serif" font-size="14" text-anchor="start">: (Array of)</text><text x="338" y="-154.3" fill="#c83500" font-family="mono" font-size="14" text-anchor="start">string</text><polygon fill="#def" stroke="transparent" points="156 -125.5 156 -146.5 391 -146.5 391 -125.5 156 -125.5"/><polygon fill="none" stroke="#8ccbf2" points="156 -125.5 156 -146.5 391 -146.5 391 -125.5 156 -125.5"/><text x="159" y="-133.3" fill="#c83500" font-family="mono" font-size="14" text-anchor="start">subprotocol</text><text x="250" y="-133.3" fill="#000" font-family="Times,serif" font-size="14" text-anchor="start">:</text><text x="262" y="-133.3" fill="#c83500" font-family="mono" font-size="14" text-anchor="start">string</text><polygon fill="#def" stroke="transparent" points="156 -104.5 156 -125.5 391 -125.5 391 -104.5 156 -104.5"/><polygon fill="none" stroke="#8ccbf2" points="156 -104.5 156 -125.5 391 -125.5 391 -104.5 156 -104.5"/><text x="159" y="-112.3" fill="#c83500" font-family="mono" font-size="14" text-anchor="start">scopes</text><text x="209" y="-112.3" fill="#000" font-family="Times,serif" font-size="14" text-anchor="start">: (Array of)</text><text x="280" y="-112.3" fill="#c83500" font-family="mono" font-size="14" text-anchor="start">string</text></g><g id="edge1" class="edge"><title>Form-&gt;ExpectedResponse</title><path fill="none" stroke="#000" d="M221.7611,-100.9237C208.4672,-86.2451 194.5869,-70.9189 182.8067,-57.9116"/><polygon fill="#000" stroke="#000" points="185.074 -55.202 175.767 -50.139 179.886 -59.901 185.074 -55.202"/><text x="203" y="-71.8" fill="#c83500" font-family="mono" font-size="14" text-anchor="start">response</text><text x="164.767" y="-53.939" fill="#000" font-family="Times,serif" font-size="14" text-anchor="middle">0..1</text></g><g id="node4" class="node"><title>SecurityScheme</title><polygon fill="#f2f2f2" stroke="transparent" points="332 -14 332 -35 454 -35 454 -14 332 -14"/><polygon fill="none" stroke="#8c8c8c" points="332 -14 332 -35 454 -35 454 -14 332 -14"/><text x="335" y="-21.8" fill="#000" font-family="mono" font-size="14" font-weight="bold" text-anchor="start">SecurityScheme</text></g><g id="edge2" class="edge"><title>Form-&gt;SecurityScheme</title><path fill="none" stroke="#000" d="M324.2389,-100.9237C340.1486,-83.3568 356.8981,-64.8625 369.8826,-50.5254"/><polygon fill="#000" stroke="#000" points="372.561 -52.782 376.68 -43.02 367.373 -48.083 372.561 -52.782"/><text x="350" y="-71.8" fill="#c83500" font-family="mono" font-size="14" text-anchor="start">security</text><text x="365.68" y="-46.82" fill="#000" font-family="Times,serif" font-size="14" text-anchor="middle">0..*</text></g><g id="node3" class="node"><title>Link</title><polygon fill="#8ccbf2" stroke="transparent" points="425 -157.5 425 -178.5 586 -178.5 586 -157.5 425 -157.5"/><polygon fill="none" stroke="#8ccbf2" points="425 -157.5 425 -178.5 586 -178.5 586 -157.5 425 -157.5"/><text x="488.5" y="-165.3" fill="#c83500" font-family="mono" font-size="14" font-weight="bold" text-anchor="start">Link</text><polygon fill="#def" stroke="transparent" points="425 -136.5 425 -157.5 586 -157.5 586 -136.5 425 -136.5"/><polygon fill="none" stroke="#8ccbf2" points="425 -136.5 425 -157.5 586 -157.5 586 -136.5 425 -136.5"/><text x="428" y="-144.3" fill="#c83500" font-family="mono" font-size="14" text-anchor="start">type</text><text x="462" y="-144.3" fill="#000" font-family="Times,serif" font-size="14" text-anchor="start">: (Array of)</text><text x="533" y="-144.3" fill="#c83500" font-family="mono" font-size="14" text-anchor="start">string</text></g></g></svg>