<svg xmlns="http://www.w3.org/2000/svg" xmlns:xlink="http://www.w3.org/1999/xlink" width="1716" height="492" viewBox="0 0 1287 369"><g id="graph0" class="graph" transform="scale(1 1) rotate(0) translate(4 365)"><title>%3</title><polygon fill="#fff" stroke="transparent" points="-4 4 -4 -365 1283 -365 1283 4 -4 4"/><g id="node1" class="node"><title>ArraySchema</title><polygon fill="#8ccbf2" stroke="transparent" points="8 -325 8 -346 184 -346 184 -325 8 -325"/><polygon fill="none" stroke="#8ccbf2" points="8 -325 8 -346 184 -346 184 -325 8 -325"/><text x="50.5" y="-332.8" fill="#c83500" font-family="mono" font-size="14" font-weight="bold" text-anchor="start">ArraySchema</text><polygon fill="#def" stroke="transparent" points="8 -304 8 -325 184 -325 184 -304 8 -304"/><polygon fill="none" stroke="#8ccbf2" points="8 -304 8 -325 184 -325 184 -304 8 -304"/><text x="11" y="-311.8" fill="#c83500" font-family="mono" font-size="14" text-anchor="start">minItems</text><text x="78" y="-311.8" fill="#000" font-family="Times,serif" font-size="14" text-anchor="start">:</text><text x="90" y="-311.8" fill="#c83500" font-family="mono" font-size="14" text-anchor="start">unsignedInt</text><polygon fill="#def" stroke="transparent" points="8 -283 8 -304 184 -304 184 -283 8 -283"/><polygon fill="none" stroke="#8ccbf2" points="8 -283 8 -304 184 -304 184 -283 8 -283"/><text x="11" y="-290.8" fill="#c83500" font-family="mono" font-size="14" text-anchor="start">maxItems</text><text x="78" y="-290.8" fill="#000" font-family="Times,serif" font-size="14" text-anchor="start">:</text><text x="90" y="-290.8" fill="#c83500" font-family="mono" font-size="14" text-anchor="start">unsignedInt</text></g><g id="node3" class="node"><title>DataSchema</title><polygon fill="#8ccbf2" stroke="transparent" points="400 -193 400 -214 809 -214 809 -193 400 -193"/><polygon fill="none" stroke="#8ccbf2" points="400 -193 400 -214 809 -214 809 -193 400 -193"/><text x="563" y="-200.8" fill="#c83500" font-family="mono" font-size="14" font-weight="bold" text-anchor="start">DataSchema</text><polygon fill="#def" stroke="transparent" points="400 -172 400 -193 809 -193 809 -172 400 -172"/><polygon fill="none" stroke="#8ccbf2" points="400 -172 400 -193 809 -193 809 -172 400 -172"/><text x="403" y="-179.8" fill="#c83500" font-family="mono" font-size="14" text-anchor="start">@type</text><text x="445" y="-179.8" fill="#000" font-family="Times,serif" font-size="14" text-anchor="start">:</text><text x="457" y="-179.8" fill="#000" font-family="Times,serif" font-size="14" font-style="italic" text-anchor="start">(Array of)</text><text x="516" y="-179.8" fill="#c83500" font-family="mono" font-size="14" text-anchor="start">string</text><polygon fill="#def" stroke="transparent" points="400 -151 400 -172 809 -172 809 -151 400 -151"/><polygon fill="none" stroke="#8ccbf2" points="400 -151 400 -172 809 -172 809 -151 400 -151"/><text x="403" y="-158.8" fill="#c83500" font-family="mono" font-size="14" text-anchor="start">title</text><text x="445" y="-158.8" fill="#000" font-family="Times,serif" font-size="14" text-anchor="start">: Map of</text><text x="501" y="-158.8" fill="#c83500" font-family="mono" font-size="14" text-anchor="start">string</text><text x="551" y="-158.8" fill="#c83500" font-family="mono" font-size="14" text-anchor="start">titles</text><text x="601" y="-158.8" fill="#000" font-family="Times,serif" font-size="14" text-anchor="start">: Map of</text><text x="657" y="-158.8" fill="#c83500" font-family="mono" font-size="14" text-anchor="start">string</text><polygon fill="#def" stroke="transparent" points="400 -130 400 -151 809 -151 809 -130 400 -130"/><polygon fill="none" stroke="#8ccbf2" points="400 -130 400 -151 809 -151 809 -130 400 -130"/><text x="403" y="-137.8" fill="#c83500" font-family="mono" font-size="14" text-anchor="start">description</text><text x="494" y="-137.8" fill="#000" font-family="Times,serif" font-size="14" text-anchor="start">: Map of</text><text x="550" y="-137.8" fill="#c83500" font-family="mono" font-size="14" text-anchor="start">string</text><text x="600" y="-137.8" fill="#c83500" font-family="mono" font-size="14" text-anchor="start">descriptions</text><text x="700" y="-137.8" fill="#000" font-family="Times,serif" font-size="14" text-anchor="start">: Map of</text><text x="756" y="-137.8" fill="#c83500" font-family="mono" font-size="14" text-anchor="start">string</text><polygon fill="#def" stroke="transparent" points="400 -109 400 -130 809 -130 809 -109 400 -109"/><polygon fill="none" stroke="#8ccbf2" points="400 -109 400 -130 809 -130 809 -109 400 -109"/><text x="403" y="-116.8" fill="#c83500" font-family="mono" font-size="14" text-anchor="start">unit</text><text x="437" y="-116.8" fill="#000" font-family="Times,serif" font-size="14" text-anchor="start">: (Array of)</text><text x="508" y="-116.8" fill="#c83500" font-family="mono" font-size="14" text-anchor="start">string</text><polygon fill="#def" stroke="transparent" points="400 -88 400 -109 809 -109 809 -88 400 -88"/><polygon fill="none" stroke="#8ccbf2" points="400 -88 400 -109 809 -109 809 -88 400 -88"/><text x="403" y="-95.8" fill="#c83500" font-family="mono" font-size="14" text-anchor="start">readOnly</text><text x="470" y="-95.8" fill="#000" font-family="Times,serif" font-size="14" text-anchor="start">:</text><text x="482" y="-95.8" fill="#c83500" font-family="mono" font-size="14" text-anchor="start">boolean</text><polygon fill="#def" stroke="transparent" points="400 -67 400 -88 809 -88 809 -67 400 -67"/><polygon fill="none" stroke="#8ccbf2" points="400 -67 400 -88 809 -88 809 -67 400 -67"/><text x="403" y="-74.8" fill="#c83500" font-family="mono" font-size="14" text-anchor="start">writeOnly</text><text x="478" y="-74.8" fill="#000" font-family="Times,serif" font-size="14" text-anchor="start">:</text><text x="490" y="-74.8" fill="#c83500" font-family="mono" font-size="14" text-anchor="start">boolean</text><polygon fill="#def" stroke="transparent" points="400 -46 400 -67 809 -67 809 -46 400 -46"/><polygon fill="none" stroke="#8ccbf2" points="400 -46 400 -67 809 -67 809 -46 400 -46"/><text x="403" y="-53.8" fill="#c83500" font-family="mono" font-size="14" text-anchor="start">format</text><text x="453" y="-53.8" fill="#000" font-family="Times,serif" font-size="14" text-anchor="start">:</text><text x="465" y="-53.8" fill="#c83500" font-family="mono" font-size="14" text-anchor="start">string</text><polygon fill="#def" stroke="transparent" points="400 -25 400 -46 809 -46 809 -25 400 -25"/><polygon fill="none" stroke="#8ccbf2" points="400 -25 400 -46 809 -46 809 -25 400 -25"/><text x="403" y="-32.8" fill="#c83500" font-family="mono" font-size="14" text-anchor="start">contentEncoding</text><text x="527" y="-32.8" fill="#000" font-family="Times,serif" font-size="14" text-anchor="start">:</text><text x="539" y="-32.8" fill="#c83500" font-family="mono" font-size="14" text-anchor="start">string</text><polygon fill="#def" stroke="transparent" points="400 -4 400 -25 809 -25 809 -4 400 -4"/><polygon fill="none" stroke="#8ccbf2" points="400 -4 400 -25 809 -25 809 -4 400 -4"/><text x="403" y="-11.8" fill="#c83500" font-family="mono" font-size="14" text-anchor="start">contentMediaType</text><text x="536" y="-11.8" fill="#000" font-family="Times,serif" font-size="14" text-anchor="start">:</text><text x="548" y="-11.8" fill="#c83500" font-family="mono" font-size="14" text-anchor="start">string</text></g><g id="edge3" class="edge"><title>ArraySchema-&gt;DataSchema</title><path fill="none" stroke="#000" d="M122.2019,-279.4045C135.0809,-264.1163 151.7513,-247.2229 170,-236 233.8687,-196.7211 310.4885,-169.0736 381.4554,-149.8458"/><polygon fill="#000" stroke="#000" points="382.668 -153.145 391.43 -147.188 380.866 -146.381 382.668 -153.145"/><text x="170" y="-239.8" fill="#c83500" font-family="mono" font-size="14" text-anchor="start">items</text><text x="380.43" y="-150.988" fill="#000" font-family="Times,serif" font-size="14" text-anchor="middle">0..*</text></g><g id="edge4" class="edge"><title>ArraySchema-&gt;DataSchema</title><path fill="none" stroke="#000" d="M176.4207,-279.4264C184.7049,-275.8644 193.0108,-272.3348 201,-269 259.4403,-244.6065 322.9905,-218.9673 381.9815,-195.5352"/><polygon fill="#fff" stroke="#000" points="383.405 -198.736 391.409 -191.794 380.823 -192.23 383.405 -198.736"/></g><g id="node2" class="node"><title>BooleanSchema</title><polygon fill="#8ccbf2" stroke="transparent" points="218 -304 218 -325 332 -325 332 -304 218 -304"/><polygon fill="none" stroke="#8ccbf2" points="218 -304 218 -325 332 -325 332 -304 218 -304"/><text x="221" y="-311.8" fill="#c83500" font-family="mono" font-size="14" font-weight="bold" text-anchor="start">BooleanSchema</text></g><g id="edge5" class="edge"><title>BooleanSchema-&gt;DataSchema</title><path fill="none" stroke="#000" d="M303.9082,-296.8994C331.4381,-279.6619 375.3751,-252.1511 421.2295,-223.4399"/><polygon fill="#fff" stroke="#000" points="423.192 -226.341 429.81 -218.067 419.477 -220.408 423.192 -226.341"/></g><g id="edge1" class="edge"><title>DataSchema-&gt;DataSchema</title><path fill="none" stroke="#000" d="M816.786,-125.499C827.9135,-121.4352 834.5,-115.9355 834.5,-109 834.5,-104.3402 831.5268,-100.3285 826.2007,-96.9651"/><polygon fill="#000" stroke="#000" points="827.321 -93.623 816.786 -92.501 824.322 -99.948 827.321 -93.623"/><text x="834.5" y="-105.3" fill="#c83500" font-family="mono" font-size="14" text-anchor="start">oneOf</text><text x="827.786" y="-81.301" fill="#000" font-family="Times,serif" font-size="14" text-anchor="middle">0..*</text></g><g id="node4" class="node"><title>IntegerSchema</title><polygon fill="#8ccbf2" stroke="transparent" points="367 -336 367 -357 526 -357 526 -336 367 -336"/><polygon fill="none" stroke="#8ccbf2" points="367 -336 367 -357 526 -357 526 -336 367 -336"/><text x="392.5" y="-343.8" fill="#c83500" font-family="mono" font-size="14" font-weight="bold" text-anchor="start">IntegerSchema</text><polygon fill="#def" stroke="transparent" points="367 -315 367 -336 526 -336 526 -315 367 -315"/><polygon fill="none" stroke="#8ccbf2" points="367 -315 367 -336 526 -336 526 -315 367 -315"/><text x="370" y="-322.8" fill="#c83500" font-family="mono" font-size="14" text-anchor="start">multipleOf</text><text x="453" y="-322.8" fill="#000" font-family="Times,serif" font-size="14" text-anchor="start">:</text><text x="465" y="-322.8" fill="#c83500" font-family="mono" font-size="14" text-anchor="start">integer</text><polygon fill="#def" stroke="transparent" points="367 -294 367 -315 526 -315 526 -294 367 -294"/><polygon fill="none" stroke="#8ccbf2" points="367 -294 367 -315 526 -315 526 -294 367 -294"/><text x="370" y="-301.8" fill="#c83500" font-family="mono" font-size="14" text-anchor="start">minimum</text><text x="428" y="-301.8" fill="#000" font-family="Times,serif" font-size="14" text-anchor="start">:</text><text x="440" y="-301.8" fill="#c83500" font-family="mono" font-size="14" text-anchor="start">integer</text><polygon fill="#def" stroke="transparent" points="367 -273 367 -294 526 -294 526 -273 367 -273"/><polygon fill="none" stroke="#8ccbf2" points="367 -273 367 -294 526 -294 526 -273 367 -273"/><text x="370" y="-280.8" fill="#c83500" font-family="mono" font-size="14" text-anchor="start">maximum</text><text x="428" y="-280.8" fill="#000" font-family="Times,serif" font-size="14" text-anchor="start">:</text><text x="440" y="-280.8" fill="#c83500" font-family="mono" font-size="14" text-anchor="start">integer</text></g><g id="edge6" class="edge"><title>IntegerSchema-&gt;DataSchema</title><path fill="none" stroke="#000" d="M481.4583,-268.7696C491.2845,-255.9582 502.4178,-241.4427 513.8694,-226.512"/><polygon fill="#fff" stroke="#000" points="516.949 -228.248 520.258 -218.183 511.395 -223.988 516.949 -228.248"/></g><g id="node5" class="node"><title>NullSchema</title><polygon fill="#8ccbf2" stroke="transparent" points="560 -304 560 -325 649 -325 649 -304 560 -304"/><polygon fill="none" stroke="#8ccbf2" points="560 -304 560 -325 649 -325 649 -304 560 -304"/><text x="563" y="-311.8" fill="#c83500" font-family="mono" font-size="14" font-weight="bold" text-anchor="start">NullSchema</text></g><g id="edge7" class="edge"><title>NullSchema-&gt;DataSchema</title><path fill="none" stroke="#000" d="M604,-296.7189C604,-280.4785 604,-255.2221 604,-228.4436"/><polygon fill="#fff" stroke="#000" points="607.5 -228.121 604 -218.121 600.5 -228.122 607.5 -228.121"/></g><g id="node6" class="node"><title>NumberSchema</title><polygon fill="#8ccbf2" stroke="transparent" points="683 -336 683 -357 834 -357 834 -336 683 -336"/><polygon fill="none" stroke="#8ccbf2" points="683 -336 683 -357 834 -357 834 -336 683 -336"/><text x="708.5" y="-343.8" fill="#c83500" font-family="mono" font-size="14" font-weight="bold" text-anchor="start">NumberSchema</text><polygon fill="#def" stroke="transparent" points="683 -315 683 -336 834 -336 834 -315 683 -315"/><polygon fill="none" stroke="#8ccbf2" points="683 -315 683 -336 834 -336 834 -315 683 -315"/><text x="686" y="-322.8" fill="#c83500" font-family="mono" font-size="14" text-anchor="start">minimum</text><text x="744" y="-322.8" fill="#000" font-family="Times,serif" font-size="14" text-anchor="start">:</text><text x="756" y="-322.8" fill="#c83500" font-family="mono" font-size="14" text-anchor="start">double</text><polygon fill="#def" stroke="transparent" points="683 -294 683 -315 834 -315 834 -294 683 -294"/><polygon fill="none" stroke="#8ccbf2" points="683 -294 683 -315 834 -315 834 -294 683 -294"/><text x="686" y="-301.8" fill="#c83500" font-family="mono" font-size="14" text-anchor="start">maximum</text><text x="744" y="-301.8" fill="#000" font-family="Times,serif" font-size="14" text-anchor="start">:</text><text x="756" y="-301.8" fill="#c83500" font-family="mono" font-size="14" text-anchor="start">double</text><polygon fill="#def" stroke="transparent" points="683 -273 683 -294 834 -294 834 -273 683 -273"/><polygon fill="none" stroke="#8ccbf2" points="683 -273 683 -294 834 -294 834 -273 683 -273"/><text x="686" y="-280.8" fill="#c83500" font-family="mono" font-size="14" text-anchor="start">multipleOf</text><text x="769" y="-280.8" fill="#000" font-family="Times,serif" font-size="14" text-anchor="start">:</text><text x="781" y="-280.8" fill="#c83500" font-family="mono" font-size="14" text-anchor="start">double</text></g><g id="edge8" class="edge"><title>NumberSchema-&gt;DataSchema</title><path fill="none" stroke="#000" d="M723.4394,-268.7696C713.8619,-255.9582 703.0105,-241.4427 691.8488,-226.512"/><polygon fill="#fff" stroke="#000" points="694.413 -224.096 685.622 -218.183 688.806 -228.288 694.413 -224.096"/></g><g id="node7" class="node"><title>ObjectSchema</title><polygon fill="#8ccbf2" stroke="transparent" points="868 -315 868 -336 1053 -336 1053 -315 868 -315"/><polygon fill="none" stroke="#8ccbf2" points="868 -315 868 -336 1053 -336 1053 -315 868 -315"/><text x="910.5" y="-322.8" fill="#c83500" font-family="mono" font-size="14" font-weight="bold" text-anchor="start">ObjectSchema</text><polygon fill="#def" stroke="transparent" points="868 -294 868 -315 1053 -315 1053 -294 868 -294"/><polygon fill="none" stroke="#8ccbf2" points="868 -294 868 -315 1053 -315 1053 -294 868 -294"/><text x="871" y="-301.8" fill="#c83500" font-family="mono" font-size="14" text-anchor="start">required</text><text x="938" y="-301.8" fill="#000" font-family="Times,serif" font-size="14" text-anchor="start">: Array of</text><text x="1000" y="-301.8" fill="#c83500" font-family="mono" font-size="14" text-anchor="start">string</text></g><g id="edge2" class="edge"><title>ObjectSchema-&gt;DataSchema</title><path fill="none" stroke="#000" d="M904.6982,-289.9027C880.7932,-278.6161 852.6967,-264.7568 828,-251 812.3877,-242.3035 796.3605,-232.9799 780.4031,-223.4194"/><polygon fill="#000" stroke="#000" points="781.92 -220.247 771.548 -218.086 778.309 -226.244 781.92 -220.247"/><text x="828" y="-239.8" fill="#c83500" font-family="mono" font-size="14" text-anchor="start">properties</text><text x="760.548" y="-221.886" fill="#000" font-family="Times,serif" font-size="14" text-anchor="middle">0..*</text></g><g id="edge9" class="edge"><title>ObjectSchema-&gt;DataSchema</title><path fill="none" stroke="#000" d="M949.3666,-289.6776C941.0775,-272.5621 928.1012,-250.5195 911,-236 885.6882,-214.5095 856.2359,-196.2621 825.7854,-180.8861"/><polygon fill="#fff" stroke="#000" points="827.257 -177.709 816.742 -176.416 824.156 -183.985 827.257 -177.709"/></g><g id="node8" class="node"><title>StringSchema</title><polygon fill="#8ccbf2" stroke="transparent" points="1087 -325 1087 -346 1271 -346 1271 -325 1087 -325"/><polygon fill="none" stroke="#8ccbf2" points="1087 -325 1087 -346 1271 -346 1271 -325 1087 -325"/><text x="1129" y="-332.8" fill="#c83500" font-family="mono" font-size="14" font-weight="bold" text-anchor="start">StringSchema</text><polygon fill="#def" stroke="transparent" points="1087 -304 1087 -325 1271 -325 1271 -304 1087 -304"/><polygon fill="none" stroke="#8ccbf2" points="1087 -304 1087 -325 1271 -325 1271 -304 1087 -304"/><text x="1090" y="-311.8" fill="#c83500" font-family="mono" font-size="14" text-anchor="start">minLength</text><text x="1165" y="-311.8" fill="#000" font-family="Times,serif" font-size="14" text-anchor="start">:</text><text x="1177" y="-311.8" fill="#c83500" font-family="mono" font-size="14" text-anchor="start">unsignedInt</text><polygon fill="#def" stroke="transparent" points="1087 -283 1087 -304 1271 -304 1271 -283 1087 -283"/><polygon fill="none" stroke="#8ccbf2" points="1087 -283 1087 -304 1271 -304 1271 -283 1087 -283"/><text x="1090" y="-290.8" fill="#c83500" font-family="mono" font-size="14" text-anchor="start">maxLength</text><text x="1165" y="-290.8" fill="#000" font-family="Times,serif" font-size="14" text-anchor="start">:</text><text x="1177" y="-290.8" fill="#c83500" font-family="mono" font-size="14" text-anchor="start">unsignedInt</text></g><g id="edge10" class="edge"><title>StringSchema-&gt;DataSchema</title><path fill="none" stroke="#000" d="M1096.5158,-279.4889C1087.6004,-275.8605 1078.6339,-272.2996 1070,-269 991.2676,-238.911 904.1054,-208.2806 826.6671,-181.9832"/><polygon fill="#fff" stroke="#000" points="827.38 -178.529 816.786 -178.633 825.133 -185.159 827.38 -178.529"/></g></g></svg>