<svg xmlns="http://www.w3.org/2000/svg" xmlns:xlink="http://www.w3.org/1999/xlink" width="1211pt" height="515pt" viewBox="0 0 1210.57 515"><g id="graph0" class="graph" transform="scale(1 1) rotate(0) translate(4 511)"><title>%3</title><polygon fill="#fff" stroke="transparent" points="-4 4 -4 -511 1206.565 -511 1206.565 4 -4 4"/><g id="node1" class="node"><title>ActionAffordance</title><polygon fill="#8ccbf2" stroke="transparent" points="636.565 -254.5 636.565 -275.5 795.565 -275.5 795.565 -254.5 636.565 -254.5"/><polygon fill="none" stroke="#8ccbf2" points="636.565 -254.5 636.565 -275.5 795.565 -275.5 795.565 -254.5 636.565 -254.5"/><text x="649.565" y="-262.3" fill="#c83500" font-family="mono" font-size="14" font-weight="bold" text-anchor="start">ActionAffordance</text><polygon fill="#def" stroke="transparent" points="636.565 -233.5 636.565 -254.5 795.565 -254.5 795.565 -233.5 636.565 -233.5"/><polygon fill="none" stroke="#8ccbf2" points="636.565 -233.5 636.565 -254.5 795.565 -254.5 795.565 -233.5 636.565 -233.5"/><text x="639.565" y="-241.3" fill="#c83500" font-family="mono" font-size="14" text-anchor="start">safe</text><text x="673.565" y="-241.3" fill="#000" font-family="Times,serif" font-size="14" text-anchor="start">:</text><text x="685.565" y="-241.3" fill="#c83500" font-family="mono" font-size="14" text-anchor="start">boolean</text><polygon fill="#def" stroke="transparent" points="636.565 -212.5 636.565 -233.5 795.565 -233.5 795.565 -212.5 636.565 -212.5"/><polygon fill="none" stroke="#8ccbf2" points="636.565 -212.5 636.565 -233.5 795.565 -233.5 795.565 -212.5 636.565 -212.5"/><text x="639.565" y="-220.3" fill="#c83500" font-family="mono" font-size="14" text-anchor="start">idempotent</text><text x="722.565" y="-220.3" fill="#000" font-family="Times,serif" font-size="14" text-anchor="start">:</text><text x="734.565" y="-220.3" fill="#c83500" font-family="mono" font-size="14" text-anchor="start">boolean</text></g><g id="node3" class="node"><title>InteractionAffordance</title><polygon fill="#8ccbf2" stroke="transparent" points="332.565 -132.5 332.565 -153.5 741.565 -153.5 741.565 -132.5 332.565 -132.5"/><polygon fill="none" stroke="#8ccbf2" points="332.565 -132.5 332.565 -153.5 741.565 -153.5 741.565 -132.5 332.565 -132.5"/><text x="450.065" y="-140.3" fill="#c83500" font-family="mono" font-size="14" font-weight="bold" text-anchor="start">InteractionAffordance</text><polygon fill="#def" stroke="transparent" points="332.565 -111.5 332.565 -132.5 741.565 -132.5 741.565 -111.5 332.565 -111.5"/><polygon fill="none" stroke="#8ccbf2" points="332.565 -111.5 332.565 -132.5 741.565 -132.5 741.565 -111.5 332.565 -111.5"/><text x="335.565" y="-119.3" fill="#c83500" font-family="mono" font-size="14" text-anchor="start">title</text><text x="377.565" y="-119.3" fill="#000" font-family="Times,serif" font-size="14" text-anchor="start">: Map of</text><text x="433.565" y="-119.3" fill="#c83500" font-family="mono" font-size="14" text-anchor="start">string</text><text x="483.565" y="-119.3" fill="#c83500" font-family="mono" font-size="14" text-anchor="start">titles</text><text x="533.565" y="-119.3" fill="#000" font-family="Times,serif" font-size="14" text-anchor="start">: Map of</text><text x="589.565" y="-119.3" fill="#c83500" font-family="mono" font-size="14" text-anchor="start">string</text><polygon fill="#def" stroke="transparent" points="332.565 -90.5 332.565 -111.5 741.565 -111.5 741.565 -90.5 332.565 -90.5"/><polygon fill="none" stroke="#8ccbf2" points="332.565 -90.5 332.565 -111.5 741.565 -111.5 741.565 -90.5 332.565 -90.5"/><text x="335.565" y="-98.3" fill="#c83500" font-family="mono" font-size="14" text-anchor="start">description</text><text x="426.565" y="-98.3" fill="#000" font-family="Times,serif" font-size="14" text-anchor="start">: Map of</text><text x="482.565" y="-98.3" fill="#c83500" font-family="mono" font-size="14" text-anchor="start">string</text><text x="532.565" y="-98.3" fill="#c83500" font-family="mono" font-size="14" text-anchor="start">descriptions</text><text x="632.565" y="-98.3" fill="#000" font-family="Times,serif" font-size="14" text-anchor="start">: Map of</text><text x="688.565" y="-98.3" fill="#c83500" font-family="mono" font-size="14" text-anchor="start">string</text></g><g id="edge15" class="edge"><title>ActionAffordance-&gt;InteractionAffordance</title><path fill="none" stroke="#000" d="M663.3099,-208.8846C642.6303,-194.7902 618.7221,-178.4951 597.2805,-163.8814"/><polygon fill="#fff" stroke="#000" points="599.12 -160.899 588.886 -158.16 595.178 -166.684 599.12 -160.899"/></g><g id="node9" class="node"><title>DataSchema</title><polygon fill="#f2f2f2" stroke="transparent" points="244.565 -7 244.565 -28 333.565 -28 333.565 -7 244.565 -7"/><polygon fill="none" stroke="#8c8c8c" points="244.565 -7 244.565 -28 333.565 -28 333.565 -7 244.565 -7"/><text x="247.565" y="-14.8" fill="#000" font-family="mono" font-size="14" font-weight="bold" text-anchor="start">DataSchema</text></g><g id="edge4" class="edge"><title>ActionAffordance-&gt;DataSchema</title><path fill="none" stroke="#000" d="M741.5463,-208.7951C763.5037,-173.8936 787.068,-121.1609 757.5653,-87 731.365,-56.6631 473.4189,-32.5386 351.6285,-22.7407"/><polygon fill="#000" stroke="#000" points="351.582 -19.226 341.336 -21.921 351.026 -26.204 351.582 -19.226"/><text x="771.565" y="-118.8" fill="#c83500" font-family="mono" font-size="14" text-anchor="start">input</text><text x="352.336" y="-25.721" fill="#000" font-family="Times,serif" font-size="14" text-anchor="middle">0..1</text></g><g id="edge5" class="edge"><title>ActionAffordance-&gt;DataSchema</title><path fill="none" stroke="#000" d="M774.5831,-208.8584C791.6859,-195.2672 808.2467,-178.1207 817.5653,-158 830.8265,-129.3662 836.8698,-111.9617 817.5653,-87 789.3676,-50.539 485.1618,-29.0607 351.2419,-21.3104"/><polygon fill="#000" stroke="#000" points="351.313 -17.809 341.13 -20.733 350.914 -24.797 351.313 -17.809"/><text x="830.565" y="-118.8" fill="#c83500" font-family="mono" font-size="14" text-anchor="start">output</text><text x="352.13" y="-9.533" fill="#000" font-family="Times,serif" font-size="14" text-anchor="middle">0..1</text></g><g id="node2" class="node"><title>EventAffordance</title><polygon fill="#8ccbf2" stroke="transparent" points="140.565 -233.5 140.565 -254.5 270.565 -254.5 270.565 -233.5 140.565 -233.5"/><polygon fill="none" stroke="#8ccbf2" points="140.565 -233.5 140.565 -254.5 270.565 -254.5 270.565 -233.5 140.565 -233.5"/><text x="143.565" y="-241.3" fill="#c83500" font-family="mono" font-size="14" font-weight="bold" text-anchor="start">EventAffordance</text></g><g id="edge16" class="edge"><title>EventAffordance-&gt;InteractionAffordance</title><path fill="none" stroke="#000" d="M254.4054,-226.4985C300.5794,-209.4797 371.4031,-183.3755 430.5408,-161.5785"/><polygon fill="#fff" stroke="#000" points="431.754 -164.862 439.926 -158.119 429.333 -158.294 431.754 -164.862"/></g><g id="edge6" class="edge"><title>EventAffordance-&gt;DataSchema</title><path fill="none" stroke="#000" d="M132.501,-231.805C89.9881,-220.2625 39.7598,-198.5314 13.5653,-158 -3.5628,-131.4975 -5.2067,-112.3646 13.5653,-87 38.5954,-53.1793 152.8362,-33.7583 225.9736,-24.5875"/><polygon fill="#000" stroke="#000" points="226.506 -28.049 236.007 -23.361 225.656 -21.1 226.506 -28.049"/><text x="13.565" y="-118.8" fill="#c83500" font-family="mono" font-size="14" text-anchor="start">subscription</text><text x="225.007" y="-12.161" fill="#000" font-family="Times,serif" font-size="14" text-anchor="middle">0..1</text></g><g id="edge7" class="edge"><title>EventAffordance-&gt;DataSchema</title><path fill="none" stroke="#000" d="M189.1627,-226.1832C175.5674,-209.6831 157.2699,-184.0781 149.5653,-158 140.6244,-127.7376 135.7711,-115.3809 149.5653,-87 163.9649,-57.3732 196.317,-40.3068 226.1883,-30.5611"/><polygon fill="#000" stroke="#000" points="227.224 -33.904 235.774 -27.648 225.188 -27.207 227.224 -33.904"/><text x="149.565" y="-118.8" fill="#c83500" font-family="mono" font-size="14" text-anchor="start">data</text><text x="224.774" y="-31.448" fill="#000" font-family="Times,serif" font-size="14" text-anchor="middle">0..1</text></g><g id="edge8" class="edge"><title>EventAffordance-&gt;DataSchema</title><path fill="none" stroke="#000" d="M202.4329,-226.4472C198.0354,-196.0337 192.8098,-133.366 214.5653,-87 222.7985,-69.453 237.6825,-54.2132 251.9541,-42.5518"/><polygon fill="#000" stroke="#000" points="254.49 -45.013 260.231 -36.109 250.19 -39.489 254.49 -45.013"/><text x="214.565" y="-118.8" fill="#c83500" font-family="mono" font-size="14" text-anchor="start">cancellation</text><text x="249.232" y="-39.909" fill="#000" font-family="Times,serif" font-size="14" text-anchor="middle">0..1</text></g><g id="node7" class="node"><title>Form</title><polygon fill="#f2f2f2" stroke="transparent" points="912.565 -7 912.565 -28 952.565 -28 952.565 -7 912.565 -7"/><polygon fill="none" stroke="#8c8c8c" points="912.565 -7 912.565 -28 952.565 -28 952.565 -7 912.565 -7"/><text x="915.565" y="-14.8" fill="#000" font-family="mono" font-size="14" font-weight="bold" text-anchor="start">Form</text></g><g id="edge1" class="edge"><title>InteractionAffordance-&gt;Form</title><path fill="none" stroke="#000" d="M671.1854,-86.9753C749.8487,-66.2169 843.4324,-41.5212 894.5552,-28.0304"/><polygon fill="#000" stroke="#000" points="895.722 -31.342 904.498 -25.407 893.936 -24.574 895.722 -31.342"/><text x="793.565" y="-57.8" fill="#c83500" font-family="mono" font-size="14" text-anchor="start">forms</text><text x="893.498" y="-29.207" fill="#000" font-family="Times,serif" font-size="14" text-anchor="middle">1..*</text></g><g id="edge12" class="edge"><title>InteractionAffordance-&gt;DataSchema</title><path fill="none" stroke="#000" d="M452.2577,-86.9753C415.322,-71.4116 373.1338,-53.6347 340.8384,-40.0264"/><polygon fill="#000" stroke="#000" points="342.153 -36.782 331.578 -36.124 339.435 -43.233 342.153 -36.782"/><text x="405.565" y="-57.8" fill="#c83500" font-family="mono" font-size="14" text-anchor="start">uriVariables</text><text x="320.578" y="-39.924" fill="#000" font-family="Times,serif" font-size="14" text-anchor="middle">0..*</text></g><g id="node4" class="node"><title>PropertyAffordance</title><polygon fill="#8ccbf2" stroke="transparent" points="443.565 -244.5 443.565 -265.5 602.565 -265.5 602.565 -244.5 443.565 -244.5"/><polygon fill="none" stroke="#8ccbf2" points="443.565 -244.5 443.565 -265.5 602.565 -265.5 602.565 -244.5 443.565 -244.5"/><text x="448.565" y="-252.3" fill="#c83500" font-family="mono" font-size="14" font-weight="bold" text-anchor="start">PropertyAffordance</text><polygon fill="#def" stroke="transparent" points="443.565 -223.5 443.565 -244.5 602.565 -244.5 602.565 -223.5 443.565 -223.5"/><polygon fill="none" stroke="#8ccbf2" points="443.565 -223.5 443.565 -244.5 602.565 -244.5 602.565 -223.5 443.565 -223.5"/><text x="446.565" y="-231.3" fill="#c83500" font-family="mono" font-size="14" text-anchor="start">observable</text><text x="529.565" y="-231.3" fill="#000" font-family="Times,serif" font-size="14" text-anchor="start">:</text><text x="541.565" y="-231.3" fill="#c83500" font-family="mono" font-size="14" text-anchor="start">boolean</text></g><g id="edge17" class="edge"><title>PropertyAffordance-&gt;InteractionAffordance</title><path fill="none" stroke="#000" d="M525.4661,-219.2215C527.1375,-204.6564 529.2903,-185.896 531.2544,-168.78"/><polygon fill="#fff" stroke="#000" points="534.784 -168.721 532.447 -158.388 527.83 -167.923 534.784 -168.721"/></g><g id="node5" class="node"><title>Thing</title><polygon fill="#8ccbf2" stroke="transparent" points="673.565 -482 673.565 -503 1082.565 -503 1082.565 -482 673.565 -482"/><polygon fill="none" stroke="#8ccbf2" points="673.565 -482 673.565 -503 1082.565 -503 1082.565 -482 673.565 -482"/><text x="857.065" y="-489.8" fill="#c83500" font-family="mono" font-size="14" font-weight="bold" text-anchor="start">Thing</text><polygon fill="#def" stroke="transparent" points="673.565 -461 673.565 -482 1082.565 -482 1082.565 -461 673.565 -461"/><polygon fill="none" stroke="#8ccbf2" points="673.565 -461 673.565 -482 1082.565 -482 1082.565 -461 673.565 -461"/><text x="676.565" y="-468.8" fill="#c83500" font-family="mono" font-size="14" text-anchor="start">@context</text><text x="743.565" y="-468.8" fill="#000" font-family="Times,serif" font-size="14" text-anchor="start">:</text><text x="755.565" y="-468.8" fill="#c83500" font-family="mono" font-size="14" font-style="italic" text-anchor="start">anyURI</text><text x="805.565" y="-468.8" fill="#000" font-family="Times,serif" font-size="14" font-style="italic" text-anchor="start">or Array</text><text x="861.565" y="-468.8" fill="#000" font-family="Times,serif" font-size="14" font-style="italic" text-anchor="start">(mandatory)</text><polygon fill="#def" stroke="transparent" points="673.565 -440 673.565 -461 1082.565 -461 1082.565 -440 673.565 -440"/><polygon fill="none" stroke="#8ccbf2" points="673.565 -440 673.565 -461 1082.565 -461 1082.565 -440 673.565 -440"/><text x="676.565" y="-447.8" fill="#c83500" font-family="mono" font-size="14" text-anchor="start">@type</text><text x="718.565" y="-447.8" fill="#000" font-family="Times,serif" font-size="14" text-anchor="start">:</text><text x="730.565" y="-447.8" fill="#000" font-family="Times,serif" font-size="14" font-style="italic" text-anchor="start">(Array of)</text><text x="789.565" y="-447.8" fill="#c83500" font-family="mono" font-size="14" text-anchor="start">string</text><polygon fill="#def" stroke="transparent" points="673.565 -419 673.565 -440 1082.565 -440 1082.565 -419 673.565 -419"/><polygon fill="none" stroke="#8ccbf2" points="673.565 -419 673.565 -440 1082.565 -440 1082.565 -419 673.565 -419"/><text x="676.565" y="-426.8" fill="#c83500" font-family="mono" font-size="14" text-anchor="start">id</text><text x="693.565" y="-426.8" fill="#000" font-family="Times,serif" font-size="14" text-anchor="start">:</text><text x="705.565" y="-426.8" fill="#c83500" font-family="mono" font-size="14" text-anchor="start">anyURI</text><text x="759.565" y="-426.8" fill="#000" font-family="Times,serif" font-size="14" font-style="italic" text-anchor="start">(mandatory)</text><polygon fill="#def" stroke="transparent" points="673.565 -398 673.565 -419 1082.565 -419 1082.565 -398 673.565 -398"/><polygon fill="none" stroke="#8ccbf2" points="673.565 -398 673.565 -419 1082.565 -419 1082.565 -398 673.565 -398"/><text x="676.565" y="-405.8" fill="#c83500" font-family="mono" font-size="14" text-anchor="start">title</text><text x="718.565" y="-405.8" fill="#000" font-family="Times,serif" font-size="14" text-anchor="start">: Map of</text><text x="774.565" y="-405.8" fill="#c83500" font-family="mono" font-size="14" text-anchor="start">string</text><text x="828.565" y="-405.8" fill="#000" font-family="Times,serif" font-size="14" font-style="italic" text-anchor="start">(mandatory)</text><text x="896.565" y="-405.8" fill="#c83500" font-family="mono" font-size="14" text-anchor="start">titles</text><text x="946.565" y="-405.8" fill="#000" font-family="Times,serif" font-size="14" text-anchor="start">: Map of</text><text x="1002.565" y="-405.8" fill="#c83500" font-family="mono" font-size="14" text-anchor="start">string</text><polygon fill="#def" stroke="transparent" points="673.565 -377 673.565 -398 1082.565 -398 1082.565 -377 673.565 -377"/><polygon fill="none" stroke="#8ccbf2" points="673.565 -377 673.565 -398 1082.565 -398 1082.565 -377 673.565 -377"/><text x="676.565" y="-384.8" fill="#c83500" font-family="mono" font-size="14" text-anchor="start">created</text><text x="734.565" y="-384.8" fill="#000" font-family="Times,serif" font-size="14" text-anchor="start">:</text><text x="746.565" y="-384.8" fill="#c83500" font-family="mono" font-size="14" text-anchor="start">dateTime</text><polygon fill="#def" stroke="transparent" points="673.565 -356 673.565 -377 1082.565 -377 1082.565 -356 673.565 -356"/><polygon fill="none" stroke="#8ccbf2" points="673.565 -356 673.565 -377 1082.565 -377 1082.565 -356 673.565 -356"/><text x="676.565" y="-363.8" fill="#c83500" font-family="mono" font-size="14" text-anchor="start">description</text><text x="767.565" y="-363.8" fill="#000" font-family="Times,serif" font-size="14" text-anchor="start">: Map of</text><text x="823.565" y="-363.8" fill="#c83500" font-family="mono" font-size="14" text-anchor="start">string</text><text x="873.565" y="-363.8" fill="#c83500" font-family="mono" font-size="14" text-anchor="start">descriptions</text><text x="973.565" y="-363.8" fill="#000" font-family="Times,serif" font-size="14" text-anchor="start">: Map of</text><text x="1029.565" y="-363.8" fill="#c83500" font-family="mono" font-size="14" text-anchor="start">string</text><polygon fill="#def" stroke="transparent" points="673.565 -335 673.565 -356 1082.565 -356 1082.565 -335 673.565 -335"/><polygon fill="none" stroke="#8ccbf2" points="673.565 -335 673.565 -356 1082.565 -356 1082.565 -335 673.565 -335"/><text x="676.565" y="-342.8" fill="#c83500" font-family="mono" font-size="14" text-anchor="start">modified</text><text x="743.565" y="-342.8" fill="#000" font-family="Times,serif" font-size="14" text-anchor="start">:</text><text x="755.565" y="-342.8" fill="#c83500" font-family="mono" font-size="14" text-anchor="start">dateTime</text></g><g id="edge13" class="edge"><title>Thing-&gt;ActionAffordance</title><path fill="none" stroke="#000" d="M795.8533,-330.9832C781.9177,-315.9722 768.0101,-300.9915 755.7808,-287.8186"/><polygon fill="#000" stroke="#000" points="758.155 -285.232 748.787 -280.285 753.025 -289.995 758.155 -285.232"/><text x="777.565" y="-301.8" fill="#c83500" font-family="mono" font-size="14" text-anchor="start">actions</text><text x="737.787" y="-284.085" fill="#000" font-family="Times,serif" font-size="14" text-anchor="middle">0..*</text></g><g id="edge14" class="edge"><title>Thing-&gt;EventAffordance</title><path fill="none" stroke="#000" d="M664.9403,-363.7871C535.6457,-330.2128 378.047,-289.2888 285.0855,-265.1492"/><polygon fill="#000" stroke="#000" points="285.744 -261.704 275.186 -262.579 283.985 -268.48 285.744 -261.704"/><text x="462.565" y="-301.8" fill="#c83500" font-family="mono" font-size="14" text-anchor="start">events</text><text x="264.186" y="-266.378" fill="#000" font-family="Times,serif" font-size="14" text-anchor="middle">0..*</text></g><g id="edge11" class="edge"><title>Thing-&gt;PropertyAffordance</title><path fill="none" stroke="#000" d="M698.5052,-330.9832C656.7867,-310.4765 615.1831,-290.0262 582.9136,-274.1642"/><polygon fill="#000" stroke="#000" points="584.158 -270.876 573.639 -269.605 581.07 -277.158 584.158 -270.876"/><text x="658.565" y="-301.8" fill="#c83500" font-family="mono" font-size="14" text-anchor="start">properties</text><text x="562.639" y="-273.405" fill="#000" font-family="Times,serif" font-size="14" text-anchor="middle">0..*</text></g><g id="node6" class="node"><title>VersionInfo</title><polygon fill="#8ccbf2" stroke="transparent" points="829.565 -233.5 829.565 -254.5 926.565 -254.5 926.565 -233.5 829.565 -233.5"/><polygon fill="none" stroke="#8ccbf2" points="829.565 -233.5 829.565 -254.5 926.565 -254.5 926.565 -233.5 829.565 -233.5"/><text x="832.565" y="-241.3" fill="#c83500" font-family="mono" font-size="14" font-weight="bold" text-anchor="start">VersionInfo</text></g><g id="edge10" class="edge"><title>Thing-&gt;VersionInfo</title><path fill="none" stroke="#000" d="M877.5653,-330.9832C877.5653,-309.9239 877.5653,-288.9242 877.5653,-272.8921"/><polygon fill="#000" stroke="#000" points="881.065 -272.647 877.565 -262.647 874.065 -272.647 881.065 -272.647"/><text x="877.565" y="-301.8" fill="#c83500" font-family="mono" font-size="14" text-anchor="start">version</text><text x="866.565" y="-266.447" fill="#000" font-family="Times,serif" font-size="14" text-anchor="middle">0..*</text></g><g id="edge3" class="edge"><title>Thing-&gt;Form</title><path fill="none" stroke="#000" d="M932.7801,-330.9644C935.3474,-325.0063 937.6469,-318.9896 939.5653,-313 969.6693,-219.0059 950.4985,-99.4111 939.1682,-45.9816"/><polygon fill="#000" stroke="#000" points="942.585 -45.223 937.024 -36.205 935.748 -46.723 942.585 -45.223"/><text x="956.565" y="-179.8" fill="#c83500" font-family="mono" font-size="14" text-anchor="start">forms</text><text x="926.024" y="-40.005" fill="#000" font-family="Times,serif" font-size="14" text-anchor="middle">0..*</text></g><g id="node8" class="node"><title>Link</title><polygon fill="#f2f2f2" stroke="transparent" points="998.565 -233.5 998.565 -254.5 1038.565 -254.5 1038.565 -233.5 998.565 -233.5"/><polygon fill="none" stroke="#8c8c8c" points="998.565 -233.5 998.565 -254.5 1038.565 -254.5 1038.565 -233.5 998.565 -233.5"/><text x="1001.565" y="-241.3" fill="#000" font-family="mono" font-size="14" font-weight="bold" text-anchor="start">Link</text></g><g id="edge2" class="edge"><title>Thing-&gt;Link</title><path fill="none" stroke="#000" d="M962.358,-330.7791C967.2889,-324.8667 972.0659,-318.9107 976.5653,-313 986.492,-299.9595 996.1531,-284.4614 1003.7018,-271.5078"/><polygon fill="#000" stroke="#000" points="1006.872 -273.015 1008.799 -262.597 1000.795 -269.539 1006.872 -273.015"/><text x="987.565" y="-301.8" fill="#c83500" font-family="mono" font-size="14" text-anchor="start">links</text><text x="997.799" y="-266.397" fill="#000" font-family="Times,serif" font-size="14" text-anchor="middle">0..*</text></g><g id="node10" class="node"><title>SecurityScheme</title><polygon fill="#f2f2f2" stroke="transparent" points="1072.565 -233.5 1072.565 -254.5 1194.565 -254.5 1194.565 -233.5 1072.565 -233.5"/><polygon fill="none" stroke="#8c8c8c" points="1072.565 -233.5 1072.565 -254.5 1194.565 -254.5 1194.565 -233.5 1072.565 -233.5"/><text x="1075.565" y="-241.3" fill="#000" font-family="mono" font-size="14" font-weight="bold" text-anchor="start">SecurityScheme</text></g><g id="edge9" class="edge"><title>Thing-&gt;SecurityScheme</title><path fill="none" stroke="#000" d="M1007.4031,-330.8309C1016.2595,-324.8002 1025.0449,-318.8129 1033.5653,-313 1055.2728,-298.1902 1079.597,-281.5296 1098.8199,-268.3477"/><polygon fill="#000" stroke="#000" points="1100.998 -271.098 1107.265 -262.555 1097.039 -265.325 1100.998 -271.098"/><text x="1055.565" y="-301.8" fill="#c83500" font-family="mono" font-size="14" text-anchor="start">security</text><text x="1096.265" y="-266.355" fill="#000" font-family="Times,serif" font-size="14" text-anchor="middle">1..*</text></g></g></svg>