<svg xmlns="http://www.w3.org/2000/svg" xmlns:xlink="http://www.w3.org/1999/xlink" width="1652pt" height="332" viewBox="0 0 1651.5 249"><g id="graph0" class="graph" transform="scale(1 1) rotate(0) translate(4 245)"><title>%3</title><polygon fill="#fff" stroke="transparent" points="-4 4 -4 -245 1647.5 -245 1647.5 4 -4 4"/><g id="node1" class="node"><title>APIKeySecurityScheme</title><polygon fill="#8ccbf2" stroke="transparent" points="8 -184 8 -205 180 -205 180 -184 8 -184"/><polygon fill="none" stroke="#8ccbf2" points="8 -184 8 -205 180 -205 180 -184 8 -184"/><text x="11" y="-191.8" fill="#c83500" font-family="mono" font-size="14" font-weight="bold" text-anchor="start">APIKeySecurityScheme</text><polygon fill="#def" stroke="transparent" points="8 -163 8 -184 180 -184 180 -163 8 -163"/><polygon fill="none" stroke="#8ccbf2" points="8 -163 8 -184 180 -184 180 -163 8 -163"/><text x="11" y="-170.8" fill="#c83500" font-family="mono" font-size="14" text-anchor="start">in</text><text x="28" y="-170.8" fill="#000" font-family="Times,serif" font-size="14" text-anchor="start">:</text><text x="40" y="-170.8" fill="#c83500" font-family="mono" font-size="14" text-anchor="start">string</text><polygon fill="#def" stroke="transparent" points="8 -142 8 -163 180 -163 180 -142 8 -142"/><polygon fill="none" stroke="#8ccbf2" points="8 -142 8 -163 180 -163 180 -142 8 -142"/><text x="11" y="-149.8" fill="#c83500" font-family="mono" font-size="14" text-anchor="start">name</text><text x="45" y="-149.8" fill="#000" font-family="Times,serif" font-size="14" text-anchor="start">:</text><text x="57" y="-149.8" fill="#c83500" font-family="mono" font-size="14" text-anchor="start">string</text></g><g id="node9" class="node"><title>SecurityScheme</title><polygon fill="#8ccbf2" stroke="transparent" points="659 -45.5 659 -66.5 1068 -66.5 1068 -45.5 659 -45.5"/><polygon fill="none" stroke="#8ccbf2" points="659 -45.5 659 -66.5 1068 -66.5 1068 -45.5 659 -45.5"/><text x="805.5" y="-53.3" fill="#c83500" font-family="mono" font-size="14" font-weight="bold" text-anchor="start">SecurityScheme</text><polygon fill="#def" stroke="transparent" points="659 -24.5 659 -45.5 1068 -45.5 1068 -24.5 659 -24.5"/><polygon fill="none" stroke="#8ccbf2" points="659 -24.5 659 -45.5 1068 -45.5 1068 -24.5 659 -24.5"/><text x="662" y="-32.3" fill="#c83500" font-family="mono" font-size="14" text-anchor="start">@type</text><text x="704" y="-32.3" fill="#000" font-family="Times,serif" font-size="14" text-anchor="start">:</text><text x="716" y="-32.3" fill="#000" font-family="Times,serif" font-size="14" font-style="italic" text-anchor="start">(Array of)</text><text x="775" y="-32.3" fill="#c83500" font-family="mono" font-size="14" text-anchor="start">string</text><polygon fill="#def" stroke="transparent" points="659 -3.5 659 -24.5 1068 -24.5 1068 -3.5 659 -3.5"/><polygon fill="none" stroke="#8ccbf2" points="659 -3.5 659 -24.5 1068 -24.5 1068 -3.5 659 -3.5"/><text x="662" y="-11.3" fill="#c83500" font-family="mono" font-size="14" text-anchor="start">description</text><text x="753" y="-11.3" fill="#000" font-family="Times,serif" font-size="14" text-anchor="start">: Map of</text><text x="809" y="-11.3" fill="#c83500" font-family="mono" font-size="14" text-anchor="start">string</text><text x="859" y="-11.3" fill="#c83500" font-family="mono" font-size="14" text-anchor="start">descriptions</text><text x="959" y="-11.3" fill="#000" font-family="Times,serif" font-size="14" text-anchor="start">: Map of</text><text x="1015" y="-11.3" fill="#c83500" font-family="mono" font-size="14" text-anchor="start">string</text></g><g id="edge1" class="edge"><title>APIKeySecurityScheme-&gt;SecurityScheme</title><path fill="none" stroke="#000" d="M138.7201,-138.3518C155.9844,-126.4119 176.5,-114.2939 197,-107 276.3455,-78.7689 479.1044,-59.5951 640.2244,-48.2668"/><polygon fill="#fff" stroke="#000" points="640.556 -51.752 650.288 -47.566 640.069 -44.769 640.556 -51.752"/></g><g id="node2" class="node"><title>BasicSecurityScheme</title><polygon fill="#8ccbf2" stroke="transparent" points="215 -184 215 -205 378 -205 378 -184 215 -184"/><polygon fill="none" stroke="#8ccbf2" points="215 -184 215 -205 378 -205 378 -184 215 -184"/><text x="218" y="-191.8" fill="#c83500" font-family="mono" font-size="14" font-weight="bold" text-anchor="start">BasicSecurityScheme</text><polygon fill="#def" stroke="transparent" points="215 -163 215 -184 378 -184 378 -163 215 -163"/><polygon fill="none" stroke="#8ccbf2" points="215 -163 215 -184 378 -184 378 -163 215 -163"/><text x="218" y="-170.8" fill="#c83500" font-family="mono" font-size="14" text-anchor="start">in</text><text x="235" y="-170.8" fill="#000" font-family="Times,serif" font-size="14" text-anchor="start">:</text><text x="247" y="-170.8" fill="#c83500" font-family="mono" font-size="14" text-anchor="start">string</text><polygon fill="#def" stroke="transparent" points="215 -142 215 -163 378 -163 378 -142 215 -142"/><polygon fill="none" stroke="#8ccbf2" points="215 -142 215 -163 378 -163 378 -142 215 -142"/><text x="218" y="-149.8" fill="#c83500" font-family="mono" font-size="14" text-anchor="start">name</text><text x="252" y="-149.8" fill="#000" font-family="Times,serif" font-size="14" text-anchor="start">:</text><text x="264" y="-149.8" fill="#c83500" font-family="mono" font-size="14" text-anchor="start">string</text></g><g id="edge2" class="edge"><title>BasicSecurityScheme-&gt;SecurityScheme</title><path fill="none" stroke="#000" d="M339.4648,-138.4643C355.9555,-126.6853 375.4824,-114.644 395,-107 440.0423,-89.3594 542.6047,-72.825 640.2698,-60.1089"/><polygon fill="#fff" stroke="#000" points="640.843 -63.564 650.312 -58.812 639.947 -56.622 640.843 -63.564"/></g><g id="node3" class="node"><title>BearerSecurityScheme</title><polygon fill="#8ccbf2" stroke="transparent" points="412 -216 412 -237 588 -237 588 -216 412 -216"/><polygon fill="none" stroke="#8ccbf2" points="412 -216 412 -237 588 -237 588 -216 412 -216"/><text x="417" y="-223.8" fill="#c83500" font-family="mono" font-size="14" font-weight="bold" text-anchor="start">BearerSecurityScheme</text><polygon fill="#def" stroke="transparent" points="412 -195 412 -216 588 -216 588 -195 412 -195"/><polygon fill="none" stroke="#8ccbf2" points="412 -195 412 -216 588 -216 588 -195 412 -195"/><text x="415" y="-202.8" fill="#c83500" font-family="mono" font-size="14" text-anchor="start">alg</text><text x="440" y="-202.8" fill="#000" font-family="Times,serif" font-size="14" text-anchor="start">:</text><text x="452" y="-202.8" fill="#c83500" font-family="mono" font-size="14" text-anchor="start">string</text><polygon fill="#def" stroke="transparent" points="412 -174 412 -195 588 -195 588 -174 412 -174"/><polygon fill="none" stroke="#8ccbf2" points="412 -174 412 -195 588 -195 588 -174 412 -174"/><text x="415" y="-181.8" fill="#c83500" font-family="mono" font-size="14" text-anchor="start">authorization</text><text x="523" y="-181.8" fill="#000" font-family="Times,serif" font-size="14" text-anchor="start">:</text><text x="535" y="-181.8" fill="#c83500" font-family="mono" font-size="14" text-anchor="start">anyURI</text><polygon fill="#def" stroke="transparent" points="412 -153 412 -174 588 -174 588 -153 412 -153"/><polygon fill="none" stroke="#8ccbf2" points="412 -153 412 -174 588 -174 588 -153 412 -153"/><text x="415" y="-160.8" fill="#c83500" font-family="mono" font-size="14" text-anchor="start">format</text><text x="465" y="-160.8" fill="#000" font-family="Times,serif" font-size="14" text-anchor="start">:</text><text x="477" y="-160.8" fill="#c83500" font-family="mono" font-size="14" text-anchor="start">string</text><polygon fill="#def" stroke="transparent" points="412 -132 412 -153 588 -153 588 -132 412 -132"/><polygon fill="none" stroke="#8ccbf2" points="412 -132 412 -153 588 -153 588 -132 412 -132"/><text x="415" y="-139.8" fill="#c83500" font-family="mono" font-size="14" text-anchor="start">in</text><text x="432" y="-139.8" fill="#000" font-family="Times,serif" font-size="14" text-anchor="start">:</text><text x="444" y="-139.8" fill="#c83500" font-family="mono" font-size="14" text-anchor="start">string</text><polygon fill="#def" stroke="transparent" points="412 -111 412 -132 588 -132 588 -111 412 -111"/><polygon fill="none" stroke="#8ccbf2" points="412 -111 412 -132 588 -132 588 -111 412 -111"/><text x="415" y="-118.8" fill="#c83500" font-family="mono" font-size="14" text-anchor="start">name</text><text x="449" y="-118.8" fill="#000" font-family="Times,serif" font-size="14" text-anchor="start">:</text><text x="461" y="-118.8" fill="#c83500" font-family="mono" font-size="14" text-anchor="start">string</text></g><g id="edge3" class="edge"><title>BearerSecurityScheme-&gt;SecurityScheme</title><path fill="none" stroke="#000" d="M596.0834,-111.173C599.061,-109.7156 602.0372,-108.3201 605,-107 633.6369,-94.2406 665.0938,-83.2413 695.8969,-73.9603"/><polygon fill="#fff" stroke="#000" points="697.276 -77.202 705.87 -71.007 695.288 -70.49 697.276 -77.202"/></g><g id="node4" class="node"><title>ComboSecurityScheme</title><polygon fill="#8ccbf2" stroke="transparent" points="623 -184 623 -205 864 -205 864 -184 623 -184"/><polygon fill="none" stroke="#8ccbf2" points="623 -184 623 -205 864 -205 864 -184 623 -184"/><text x="665" y="-191.8" fill="#c83500" font-family="mono" font-size="14" font-weight="bold" text-anchor="start">ComboSecurityScheme</text><polygon fill="#def" stroke="transparent" points="623 -163 623 -184 864 -184 864 -163 623 -163"/><polygon fill="none" stroke="#8ccbf2" points="623 -163 623 -184 864 -184 864 -163 623 -163"/><text x="626" y="-170.8" fill="#c83500" font-family="mono" font-size="14" text-anchor="start">oneOf</text><text x="668" y="-170.8" fill="#000" font-family="Times,serif" font-size="14" text-anchor="start">: (Array of)</text><text x="739" y="-170.8" fill="#c83500" font-family="mono" font-size="14" text-anchor="start">string</text><text x="793" y="-170.8" fill="#000" font-family="Times,serif" font-size="14" font-style="italic" text-anchor="start">(mandatory)</text><polygon fill="#def" stroke="transparent" points="623 -142 623 -163 864 -163 864 -142 623 -142"/><polygon fill="none" stroke="#8ccbf2" points="623 -142 623 -163 864 -163 864 -142 623 -142"/><text x="626" y="-149.8" fill="#c83500" font-family="mono" font-size="14" text-anchor="start">allOf</text><text x="668" y="-149.8" fill="#000" font-family="Times,serif" font-size="14" text-anchor="start">: (Array of)</text><text x="739" y="-149.8" fill="#c83500" font-family="mono" font-size="14" text-anchor="start">string</text><text x="793" y="-149.8" fill="#000" font-family="Times,serif" font-size="14" font-style="italic" text-anchor="start">(mandatory)</text></g><g id="edge4" class="edge"><title>ComboSecurityScheme-&gt;SecurityScheme</title><path fill="none" stroke="#000" d="M773.903,-138.3328C789.6499,-120.1583 808.9248,-97.9118 825.5141,-78.765"/><polygon fill="#fff" stroke="#000" points="828.299 -80.896 832.202 -71.046 823.008 -76.312 828.299 -80.896"/></g><g id="node5" class="node"><title>DigestSecurityScheme</title><polygon fill="#8ccbf2" stroke="transparent" points="898 -195 898 -216 1070 -216 1070 -195 898 -195"/><polygon fill="none" stroke="#8ccbf2" points="898 -195 898 -216 1070 -216 1070 -195 898 -195"/><text x="901" y="-202.8" fill="#c83500" font-family="mono" font-size="14" font-weight="bold" text-anchor="start">DigestSecurityScheme</text><polygon fill="#def" stroke="transparent" points="898 -174 898 -195 1070 -195 1070 -174 898 -174"/><polygon fill="none" stroke="#8ccbf2" points="898 -174 898 -195 1070 -195 1070 -174 898 -174"/><text x="901" y="-181.8" fill="#c83500" font-family="mono" font-size="14" text-anchor="start">qop</text><text x="926" y="-181.8" fill="#000" font-family="Times,serif" font-size="14" text-anchor="start">:</text><text x="938" y="-181.8" fill="#c83500" font-family="mono" font-size="14" text-anchor="start">string</text><polygon fill="#def" stroke="transparent" points="898 -153 898 -174 1070 -174 1070 -153 898 -153"/><polygon fill="none" stroke="#8ccbf2" points="898 -153 898 -174 1070 -174 1070 -153 898 -153"/><text x="901" y="-160.8" fill="#c83500" font-family="mono" font-size="14" text-anchor="start">in</text><text x="918" y="-160.8" fill="#000" font-family="Times,serif" font-size="14" text-anchor="start">:</text><text x="930" y="-160.8" fill="#c83500" font-family="mono" font-size="14" text-anchor="start">string</text><polygon fill="#def" stroke="transparent" points="898 -132 898 -153 1070 -153 1070 -132 898 -132"/><polygon fill="none" stroke="#8ccbf2" points="898 -132 898 -153 1070 -153 1070 -132 898 -132"/><text x="901" y="-139.8" fill="#c83500" font-family="mono" font-size="14" text-anchor="start">name</text><text x="935" y="-139.8" fill="#000" font-family="Times,serif" font-size="14" text-anchor="start">:</text><text x="947" y="-139.8" fill="#c83500" font-family="mono" font-size="14" text-anchor="start">string</text></g><g id="edge5" class="edge"><title>DigestSecurityScheme-&gt;SecurityScheme</title><path fill="none" stroke="#000" d="M943.7088,-127.8815C930.0096,-112.2011 914.7488,-94.7331 901.2168,-79.244"/><polygon fill="#fff" stroke="#000" points="903.53 -76.573 894.315 -71.344 898.259 -81.178 903.53 -76.573"/></g><g id="node6" class="node"><title>NoSecurityScheme</title><polygon fill="#8ccbf2" stroke="transparent" points="1105 -163 1105 -184 1244 -184 1244 -163 1105 -163"/><polygon fill="none" stroke="#8ccbf2" points="1105 -163 1105 -184 1244 -184 1244 -163 1105 -163"/><text x="1108" y="-170.8" fill="#c83500" font-family="mono" font-size="14" font-weight="bold" text-anchor="start">NoSecurityScheme</text></g><g id="edge6" class="edge"><title>NoSecurityScheme-&gt;SecurityScheme</title><path fill="none" stroke="#000" d="M1154.6327,-155.8777C1137.8455,-140.9929 1112.33,-120.2713 1087,-107 1063.0076,-94.4295 1036.4045,-83.572 1010.1557,-74.3841"/><polygon fill="#fff" stroke="#000" points="1011.101 -71.008 1000.507 -71.075 1008.83 -77.63 1011.101 -71.008"/></g><g id="node7" class="node"><title>OAuth2SecurityScheme</title><polygon fill="#8ccbf2" stroke="transparent" points="1278 -184 1278 -205 1455 -205 1455 -184 1278 -184"/><polygon fill="none" stroke="#8ccbf2" points="1278 -184 1278 -205 1455 -205 1455 -184 1278 -184"/><text x="1283.5" y="-191.8" fill="#c83500" font-family="mono" font-size="14" font-weight="bold" text-anchor="start">OAuth2SecurityScheme</text><polygon fill="#def" stroke="transparent" points="1278 -163 1278 -184 1455 -184 1455 -163 1278 -163"/><polygon fill="none" stroke="#8ccbf2" points="1278 -163 1278 -184 1455 -184 1455 -163 1278 -163"/><text x="1281" y="-170.8" fill="#c83500" font-family="mono" font-size="14" text-anchor="start">scopes</text><text x="1331" y="-170.8" fill="#000" font-family="Times,serif" font-size="14" text-anchor="start">: (Array of)</text><text x="1402" y="-170.8" fill="#c83500" font-family="mono" font-size="14" text-anchor="start">string</text><polygon fill="#def" stroke="transparent" points="1278 -142 1278 -163 1455 -163 1455 -142 1278 -142"/><polygon fill="none" stroke="#8ccbf2" points="1278 -142 1278 -163 1455 -163 1455 -142 1278 -142"/><text x="1281" y="-149.8" fill="#c83500" font-family="mono" font-size="14" text-anchor="start">flow</text><text x="1315" y="-149.8" fill="#000" font-family="Times,serif" font-size="14" text-anchor="start">:</text><text x="1327" y="-149.8" fill="#c83500" font-family="mono" font-size="14" text-anchor="start">string</text><text x="1381" y="-149.8" fill="#000" font-family="Times,serif" font-size="14" font-style="italic" text-anchor="start">(mandatory)</text></g><g id="edge7" class="edge"><title>OAuth2SecurityScheme-&gt;SecurityScheme</title><path fill="none" stroke="#000" d="M1318.9826,-138.4584C1301.5654,-126.8237 1281.1384,-114.8772 1261,-107 1205.9169,-85.4541 1143.9826,-70.3457 1085.6727,-59.7713"/><polygon fill="#fff" stroke="#000" points="1086.049 -56.283 1075.591 -57.981 1084.825 -63.176 1086.049 -56.283"/></g><g id="node8" class="node"><title>PSKSecurityScheme</title><polygon fill="#8ccbf2" stroke="transparent" points="1489 -174 1489 -195 1636 -195 1636 -174 1489 -174"/><polygon fill="none" stroke="#8ccbf2" points="1489 -174 1489 -195 1636 -195 1636 -174 1489 -174"/><text x="1492" y="-181.8" fill="#c83500" font-family="mono" font-size="14" font-weight="bold" text-anchor="start">PSKSecurityScheme</text><polygon fill="#def" stroke="transparent" points="1489 -153 1489 -174 1636 -174 1636 -153 1489 -153"/><polygon fill="none" stroke="#8ccbf2" points="1489 -153 1489 -174 1636 -174 1636 -153 1489 -153"/><text x="1492" y="-160.8" fill="#c83500" font-family="mono" font-size="14" text-anchor="start">identity</text><text x="1559" y="-160.8" fill="#000" font-family="Times,serif" font-size="14" text-anchor="start">:</text><text x="1571" y="-160.8" fill="#c83500" font-family="mono" font-size="14" text-anchor="start">string</text></g><g id="edge8" class="edge"><title>PSKSecurityScheme-&gt;SecurityScheme</title><path fill="none" stroke="#000" d="M1535.9264,-148.7559C1519.0752,-134.0156 1495.8936,-116.4992 1472,-107 1403.3496,-79.7072 1230.1282,-60.9919 1085.9044,-49.5758"/><polygon fill="#fff" stroke="#000" points="1085.815 -46.058 1075.572 -48.766 1085.268 -53.037 1085.815 -46.058"/></g></g></svg>