<svg xmlns="http://www.w3.org/2000/svg" xmlns:xlink="http://www.w3.org/1999/xlink" width="1409pt" height="548" viewBox="0 0 1409 411"><g id="graph0" class="graph" transform="scale(1 1) rotate(0) translate(4 407)"><polygon fill="#fff" stroke="transparent" points="-4 4 -4 -407 1405 -407 1405 4 -4 4"/><g id="node1" class="node"><title>ArraySchema</title><polygon fill="#8ccbf2" stroke="transparent" points="8 -346 8 -367 186 -367 186 -346 8 -346"/><polygon fill="none" stroke="#8ccbf2" points="8 -346 8 -367 186 -367 186 -346 8 -346"/><text x="51.5" y="-353.8" fill="#c83500" font-family="mono" font-size="14" font-weight="bold" text-anchor="start">ArraySchema</text><polygon fill="#def" stroke="transparent" points="8 -325 8 -346 186 -346 186 -325 8 -325"/><polygon fill="none" stroke="#8ccbf2" points="8 -325 8 -346 186 -346 186 -325 8 -325"/><text x="11" y="-332.8" fill="#c83500" font-family="mono" font-size="14" text-anchor="start">minItems</text><text x="78" y="-332.8" font-family="Times,serif" font-size="14" text-anchor="start">:</text><text x="92" y="-332.8" fill="#c83500" font-family="mono" font-size="14" text-anchor="start">unsignedInt</text><polygon fill="#def" stroke="transparent" points="8 -304 8 -325 186 -325 186 -304 8 -304"/><polygon fill="none" stroke="#8ccbf2" points="8 -304 8 -325 186 -325 186 -304 8 -304"/><text x="11" y="-311.8" fill="#c83500" font-family="mono" font-size="14" text-anchor="start">maxItems</text><text x="78" y="-311.8" font-family="Times,serif" font-size="14" text-anchor="start">:</text><text x="92" y="-311.8" fill="#c83500" font-family="mono" font-size="14" text-anchor="start">unsignedInt</text></g><g id="node3" class="node"><title>DataSchema</title><polygon fill="#8ccbf2" stroke="transparent" points="442 -193 442 -214 875 -214 875 -193 442 -193"/><polygon fill="none" stroke="#8ccbf2" points="442 -193 442 -214 875 -214 875 -193 442 -193"/><text x="617" y="-200.8" fill="#c83500" font-family="mono" font-size="14" font-weight="bold" text-anchor="start">DataSchema</text><polygon fill="#def" stroke="transparent" points="442 -172 442 -193 875 -193 875 -172 442 -172"/><polygon fill="none" stroke="#8ccbf2" points="442 -172 442 -193 875 -193 875 -172 442 -172"/><text x="445" y="-179.8" fill="#c83500" font-family="mono" font-size="14" text-anchor="start">@type</text><text x="487" y="-179.8" font-family="Times,serif" font-size="14" text-anchor="start">:</text><text x="501" y="-179.8" font-family="Times,serif" font-size="14" font-style="italic" text-anchor="start">(Array of)</text><text x="574" y="-179.8" fill="#c83500" font-family="mono" font-size="14" text-anchor="start">string</text><polygon fill="#def" stroke="transparent" points="442 -151 442 -172 875 -172 875 -151 442 -151"/><polygon fill="none" stroke="#8ccbf2" points="442 -151 442 -172 875 -172 875 -151 442 -151"/><text x="445" y="-158.8" fill="#c83500" font-family="mono" font-size="14" text-anchor="start">title</text><text x="487" y="-158.8" font-family="Times,serif" font-size="14" text-anchor="start">: Map of</text><text x="555" y="-158.8" fill="#c83500" font-family="mono" font-size="14" text-anchor="start">string</text><text x="605" y="-158.8" fill="#c83500" font-family="mono" font-size="14" text-anchor="start">titles</text><text x="655" y="-158.8" font-family="Times,serif" font-size="14" text-anchor="start">: Map of</text><text x="723" y="-158.8" fill="#c83500" font-family="mono" font-size="14" text-anchor="start">string</text><polygon fill="#def" stroke="transparent" points="442 -130 442 -151 875 -151 875 -130 442 -130"/><polygon fill="none" stroke="#8ccbf2" points="442 -130 442 -151 875 -151 875 -130 442 -130"/><text x="445" y="-137.8" fill="#c83500" font-family="mono" font-size="14" text-anchor="start">description</text><text x="536" y="-137.8" font-family="Times,serif" font-size="14" text-anchor="start">: Map of</text><text x="604" y="-137.8" fill="#c83500" font-family="mono" font-size="14" text-anchor="start">string</text><text x="654" y="-137.8" fill="#c83500" font-family="mono" font-size="14" text-anchor="start">descriptions</text><text x="754" y="-137.8" font-family="Times,serif" font-size="14" text-anchor="start">: Map of</text><text x="822" y="-137.8" fill="#c83500" font-family="mono" font-size="14" text-anchor="start">string</text><polygon fill="#def" stroke="transparent" points="442 -109 442 -130 875 -130 875 -109 442 -109"/><polygon fill="none" stroke="#8ccbf2" points="442 -109 442 -130 875 -130 875 -109 442 -109"/><text x="445" y="-116.8" fill="#c83500" font-family="mono" font-size="14" text-anchor="start">unit</text><text x="479" y="-116.8" font-family="Times,serif" font-size="14" text-anchor="start">: (Array of)</text><text x="566" y="-116.8" fill="#c83500" font-family="mono" font-size="14" text-anchor="start">string</text><polygon fill="#def" stroke="transparent" points="442 -88 442 -109 875 -109 875 -88 442 -88"/><polygon fill="none" stroke="#8ccbf2" points="442 -88 442 -109 875 -109 875 -88 442 -88"/><text x="445" y="-95.8" fill="#c83500" font-family="mono" font-size="14" text-anchor="start">readOnly</text><text x="512" y="-95.8" font-family="Times,serif" font-size="14" text-anchor="start">:</text><text x="526" y="-95.8" fill="#c83500" font-family="mono" font-size="14" text-anchor="start">boolean</text><polygon fill="#def" stroke="transparent" points="442 -67 442 -88 875 -88 875 -67 442 -67"/><polygon fill="none" stroke="#8ccbf2" points="442 -67 442 -88 875 -88 875 -67 442 -67"/><text x="445" y="-74.8" fill="#c83500" font-family="mono" font-size="14" text-anchor="start">writeOnly</text><text x="520" y="-74.8" font-family="Times,serif" font-size="14" text-anchor="start">:</text><text x="534" y="-74.8" fill="#c83500" font-family="mono" font-size="14" text-anchor="start">boolean</text><polygon fill="#def" stroke="transparent" points="442 -46 442 -67 875 -67 875 -46 442 -46"/><polygon fill="none" stroke="#8ccbf2" points="442 -46 442 -67 875 -67 875 -46 442 -46"/><text x="445" y="-53.8" fill="#c83500" font-family="mono" font-size="14" text-anchor="start">format</text><text x="495" y="-53.8" font-family="Times,serif" font-size="14" text-anchor="start">:</text><text x="509" y="-53.8" fill="#c83500" font-family="mono" font-size="14" text-anchor="start">string</text><polygon fill="#def" stroke="transparent" points="442 -25 442 -46 875 -46 875 -25 442 -25"/><polygon fill="none" stroke="#8ccbf2" points="442 -25 442 -46 875 -46 875 -25 442 -25"/><text x="445" y="-32.8" fill="#c83500" font-family="mono" font-size="14" text-anchor="start">contentEncoding</text><text x="569" y="-32.8" font-family="Times,serif" font-size="14" text-anchor="start">:</text><text x="583" y="-32.8" fill="#c83500" font-family="mono" font-size="14" text-anchor="start">string</text><polygon fill="#def" stroke="transparent" points="442 -4 442 -25 875 -25 875 -4 442 -4"/><polygon fill="none" stroke="#8ccbf2" points="442 -4 442 -25 875 -25 875 -4 442 -4"/><text x="445" y="-11.8" fill="#c83500" font-family="mono" font-size="14" text-anchor="start">contentMediaType</text><text x="578" y="-11.8" font-family="Times,serif" font-size="14" text-anchor="start">:</text><text x="592" y="-11.8" fill="#c83500" font-family="mono" font-size="14" text-anchor="start">string</text></g><g id="edge3" class="edge"><title>ArraySchema-&gt;DataSchema</title><path fill="none" stroke="#000" d="M115.19,-300.38C128.25,-278.8 147.78,-252.15 172,-236 246.29,-186.46 338.95,-156.4 423.38,-138.15"/><polygon fill="#000" stroke="#000" points="424.31 -141.53 433.37 -136.04 422.86 -134.68 424.31 -141.53"/><text x="172" y="-239.8" fill="#c83500" font-family="mono" font-size="14" text-anchor="start">items</text><text x="420.87" y="-139.84" font-family="Times,serif" font-size="14" text-anchor="middle">0..*</text></g><g id="edge4" class="edge"><title>ArraySchema-&gt;DataSchema</title><path fill="none" stroke="#000" d="M147.46,-300.41C164.63,-289.52 184.23,-277.99 203,-269 272.79,-235.58 351.53,-205.56 423.65,-180.84"/><polygon fill="#fff" stroke="#000" points="424.99 -184.09 433.32 -177.55 422.73 -177.46 424.99 -184.09"/></g><g id="node2" class="node"><title>BooleanSchema</title><polygon fill="#8ccbf2" stroke="transparent" points="220 -325 220 -346 334 -346 334 -325 220 -325"/><polygon fill="none" stroke="#8ccbf2" points="220 -325 220 -346 334 -346 334 -325 220 -325"/><text x="223" y="-332.8" fill="#c83500" font-family="mono" font-size="14" font-weight="bold" text-anchor="start">BooleanSchema</text></g><g id="edge5" class="edge"><title>BooleanSchema-&gt;DataSchema</title><path fill="none" stroke="#000" d="M293.62,-317.96C307.98,-303.79 329.73,-283.65 351,-269 374.1,-253.09 399.01,-237.69 424.28,-223.14"/><polygon fill="#fff" stroke="#000" points="426.28 -226.03 433.23 -218.03 422.81 -219.95 426.28 -226.03"/></g><g id="edge1" class="edge"><title>DataSchema-&gt;DataSchema</title><path fill="none" stroke="#000" d="M882.52,-125.27C893.83,-121.23 900.5,-115.8 900.5,-109 900.5,-104.32 897.35,-100.3 891.7,-96.93"/><polygon fill="#000" stroke="#000" points="893.07 -93.7 882.52 -92.73 890.16 -100.07 893.07 -93.7"/><text x="900.5" y="-105.3" fill="#c83500" font-family="mono" font-size="14" text-anchor="start">oneOf</text><text x="895.02" y="-81.53" font-family="Times,serif" font-size="14" text-anchor="middle">0..*</text></g><g id="node4" class="node"><title>IntegerSchema</title><polygon fill="#8ccbf2" stroke="transparent" points="369 -378 369 -399 580 -399 580 -378 369 -378"/><polygon fill="none" stroke="#8ccbf2" points="369 -378 369 -399 580 -399 580 -378 369 -378"/><text x="420.5" y="-385.8" fill="#c83500" font-family="mono" font-size="14" font-weight="bold" text-anchor="start">IntegerSchema</text><polygon fill="#def" stroke="transparent" points="369 -357 369 -378 580 -378 580 -357 369 -357"/><polygon fill="none" stroke="#8ccbf2" points="369 -357 369 -378 580 -378 580 -357 369 -357"/><text x="372" y="-364.8" fill="#c83500" font-family="mono" font-size="14" text-anchor="start">minimum</text><text x="430" y="-364.8" font-family="Times,serif" font-size="14" text-anchor="start">:</text><text x="444" y="-364.8" fill="#c83500" font-family="mono" font-size="14" text-anchor="start">integer</text><polygon fill="#def" stroke="transparent" points="369 -336 369 -357 580 -357 580 -336 369 -336"/><polygon fill="none" stroke="#8ccbf2" points="369 -336 369 -357 580 -357 580 -336 369 -336"/><text x="372" y="-343.8" fill="#c83500" font-family="mono" font-size="14" text-anchor="start">exclusiveMinimum</text><text x="505" y="-343.8" font-family="Times,serif" font-size="14" text-anchor="start">:</text><text x="519" y="-343.8" fill="#c83500" font-family="mono" font-size="14" text-anchor="start">integer</text><polygon fill="#def" stroke="transparent" points="369 -315 369 -336 580 -336 580 -315 369 -315"/><polygon fill="none" stroke="#8ccbf2" points="369 -315 369 -336 580 -336 580 -315 369 -315"/><text x="372" y="-322.8" fill="#c83500" font-family="mono" font-size="14" text-anchor="start">maximum</text><text x="430" y="-322.8" font-family="Times,serif" font-size="14" text-anchor="start">:</text><text x="444" y="-322.8" fill="#c83500" font-family="mono" font-size="14" text-anchor="start">integer</text><polygon fill="#def" stroke="transparent" points="369 -294 369 -315 580 -315 580 -294 369 -294"/><polygon fill="none" stroke="#8ccbf2" points="369 -294 369 -315 580 -315 580 -294 369 -294"/><text x="372" y="-301.8" fill="#c83500" font-family="mono" font-size="14" text-anchor="start">exclusiveMaximum</text><text x="505" y="-301.8" font-family="Times,serif" font-size="14" text-anchor="start">:</text><text x="519" y="-301.8" fill="#c83500" font-family="mono" font-size="14" text-anchor="start">integer</text><polygon fill="#def" stroke="transparent" points="369 -273 369 -294 580 -294 580 -273 369 -273"/><polygon fill="none" stroke="#8ccbf2" points="369 -273 369 -294 580 -294 580 -273 369 -273"/><text x="372" y="-280.8" fill="#c83500" font-family="mono" font-size="14" text-anchor="start">multipleOf</text><text x="455" y="-280.8" font-family="Times,serif" font-size="14" text-anchor="start">:</text><text x="469" y="-280.8" fill="#c83500" font-family="mono" font-size="14" text-anchor="start">integer</text></g><g id="edge6" class="edge"><title>IntegerSchema-&gt;DataSchema</title><path fill="none" stroke="#000" d="M528.21,-268.71C539.21,-255.26 551.09,-240.74 563.03,-226.13"/><polygon fill="#fff" stroke="#000" points="566.04 -227.98 569.66 -218.02 560.62 -223.55 566.04 -227.98"/></g><g id="node5" class="node"><title>NullSchema</title><polygon fill="#8ccbf2" stroke="transparent" points="614 -325 614 -346 703 -346 703 -325 614 -325"/><polygon fill="none" stroke="#8ccbf2" points="614 -325 614 -346 703 -346 703 -325 614 -325"/><text x="617" y="-332.8" fill="#c83500" font-family="mono" font-size="14" font-weight="bold" text-anchor="start">NullSchema</text></g><g id="edge7" class="edge"><title>NullSchema-&gt;DataSchema</title><path fill="none" stroke="#000" d="M658,-317.72C658,-297.91 658,-263.63 658,-228.57"/><polygon fill="#fff" stroke="#000" points="661.5 -228.18 658 -218.18 654.5 -228.18 661.5 -228.18"/></g><g id="node6" class="node"><title>NumberSchema</title><polygon fill="#8ccbf2" stroke="transparent" points="737 -378 737 -399 940 -399 940 -378 737 -378"/><polygon fill="none" stroke="#8ccbf2" points="737 -378 737 -399 940 -399 940 -378 737 -378"/><text x="788.5" y="-385.8" fill="#c83500" font-family="mono" font-size="14" font-weight="bold" text-anchor="start">NumberSchema</text><polygon fill="#def" stroke="transparent" points="737 -357 737 -378 940 -378 940 -357 737 -357"/><polygon fill="none" stroke="#8ccbf2" points="737 -357 737 -378 940 -378 940 -357 737 -357"/><text x="740" y="-364.8" fill="#c83500" font-family="mono" font-size="14" text-anchor="start">minimum</text><text x="798" y="-364.8" font-family="Times,serif" font-size="14" text-anchor="start">:</text><text x="812" y="-364.8" fill="#c83500" font-family="mono" font-size="14" text-anchor="start">double</text><polygon fill="#def" stroke="transparent" points="737 -336 737 -357 940 -357 940 -336 737 -336"/><polygon fill="none" stroke="#8ccbf2" points="737 -336 737 -357 940 -357 940 -336 737 -336"/><text x="740" y="-343.8" fill="#c83500" font-family="mono" font-size="14" text-anchor="start">exclusiveMinimum</text><text x="873" y="-343.8" font-family="Times,serif" font-size="14" text-anchor="start">:</text><text x="887" y="-343.8" fill="#c83500" font-family="mono" font-size="14" text-anchor="start">double</text><polygon fill="#def" stroke="transparent" points="737 -315 737 -336 940 -336 940 -315 737 -315"/><polygon fill="none" stroke="#8ccbf2" points="737 -315 737 -336 940 -336 940 -315 737 -315"/><text x="740" y="-322.8" fill="#c83500" font-family="mono" font-size="14" text-anchor="start">maximum</text><text x="798" y="-322.8" font-family="Times,serif" font-size="14" text-anchor="start">:</text><text x="812" y="-322.8" fill="#c83500" font-family="mono" font-size="14" text-anchor="start">double</text><polygon fill="#def" stroke="transparent" points="737 -294 737 -315 940 -315 940 -294 737 -294"/><polygon fill="none" stroke="#8ccbf2" points="737 -294 737 -315 940 -315 940 -294 737 -294"/><text x="740" y="-301.8" fill="#c83500" font-family="mono" font-size="14" text-anchor="start">exclusiveMaximum</text><text x="873" y="-301.8" font-family="Times,serif" font-size="14" text-anchor="start">:</text><text x="887" y="-301.8" fill="#c83500" font-family="mono" font-size="14" text-anchor="start">double</text><polygon fill="#def" stroke="transparent" points="737 -273 737 -294 940 -294 940 -273 737 -273"/><polygon fill="none" stroke="#8ccbf2" points="737 -273 737 -294 940 -294 940 -273 737 -273"/><text x="740" y="-280.8" fill="#c83500" font-family="mono" font-size="14" text-anchor="start">multipleOf</text><text x="823" y="-280.8" font-family="Times,serif" font-size="14" text-anchor="start">:</text><text x="837" y="-280.8" fill="#c83500" font-family="mono" font-size="14" text-anchor="start">double</text></g><g id="edge8" class="edge"><title>NumberSchema-&gt;DataSchema</title><path fill="none" stroke="#000" d="M784.97,-268.71C774.21,-255.26 762.59,-240.74 750.91,-226.13"/><polygon fill="#fff" stroke="#000" points="753.4 -223.64 744.42 -218.02 747.93 -228.02 753.4 -223.64"/></g><g id="node7" class="node"><title>ObjectSchema</title><polygon fill="#8ccbf2" stroke="transparent" points="974 -336 974 -357 1173 -357 1173 -336 974 -336"/><polygon fill="none" stroke="#8ccbf2" points="974 -336 974 -357 1173 -357 1173 -336 974 -336"/><text x="1023.5" y="-343.8" fill="#c83500" font-family="mono" font-size="14" font-weight="bold" text-anchor="start">ObjectSchema</text><polygon fill="#def" stroke="transparent" points="974 -315 974 -336 1173 -336 1173 -315 974 -315"/><polygon fill="none" stroke="#8ccbf2" points="974 -315 974 -336 1173 -336 1173 -315 974 -315"/><text x="977" y="-322.8" fill="#c83500" font-family="mono" font-size="14" text-anchor="start">required</text><text x="1044" y="-322.8" font-family="Times,serif" font-size="14" text-anchor="start">: Array of</text><text x="1120" y="-322.8" fill="#c83500" font-family="mono" font-size="14" text-anchor="start">string</text></g><g id="edge2" class="edge"><title>ObjectSchema-&gt;DataSchema</title><path fill="none" stroke="#000" d="M1030.89,-310.93C1008.68,-298.32 980.94,-282.69 956,-269 928.63,-253.98 899.75,-238.33 871.18,-222.96"/><polygon fill="#000" stroke="#000" points="872.79 -219.86 862.33 -218.2 869.48 -226.02 872.79 -219.86"/><text x="916" y="-239.8" fill="#c83500" font-family="mono" font-size="14" text-anchor="start">properties</text><text x="849.83" y="-222" font-family="Times,serif" font-size="14" text-anchor="middle">0..*</text></g><g id="edge9" class="edge"><title>ObjectSchema-&gt;DataSchema</title><path fill="none" stroke="#000" d="M1061.24,-310.61C1049.37,-288.34 1029.09,-255.94 1003,-236 969.94,-210.72 931.31,-190.14 892.1,-173.51"/><polygon fill="#fff" stroke="#000" points="893.24 -170.19 882.66 -169.59 890.55 -176.66 893.24 -170.19"/></g><g id="node8" class="node"><title>StringSchema</title><polygon fill="#8ccbf2" stroke="transparent" points="1207 -346 1207 -367 1393 -367 1393 -346 1207 -346"/><polygon fill="none" stroke="#8ccbf2" points="1207 -346 1207 -367 1393 -367 1393 -346 1207 -346"/><text x="1250" y="-353.8" fill="#c83500" font-family="mono" font-size="14" font-weight="bold" text-anchor="start">StringSchema</text><polygon fill="#def" stroke="transparent" points="1207 -325 1207 -346 1393 -346 1393 -325 1207 -325"/><polygon fill="none" stroke="#8ccbf2" points="1207 -325 1207 -346 1393 -346 1393 -325 1207 -325"/><text x="1210" y="-332.8" fill="#c83500" font-family="mono" font-size="14" text-anchor="start">minLength</text><text x="1285" y="-332.8" font-family="Times,serif" font-size="14" text-anchor="start">:</text><text x="1299" y="-332.8" fill="#c83500" font-family="mono" font-size="14" text-anchor="start">unsignedInt</text><polygon fill="#def" stroke="transparent" points="1207 -304 1207 -325 1393 -325 1393 -304 1207 -304"/><polygon fill="none" stroke="#8ccbf2" points="1207 -304 1207 -325 1393 -325 1393 -304 1207 -304"/><text x="1210" y="-311.8" fill="#c83500" font-family="mono" font-size="14" text-anchor="start">maxLength</text><text x="1285" y="-311.8" font-family="Times,serif" font-size="14" text-anchor="start">:</text><text x="1299" y="-311.8" fill="#c83500" font-family="mono" font-size="14" text-anchor="start">unsignedInt</text></g><g id="edge10" class="edge"><title>StringSchema-&gt;DataSchema</title><path fill="none" stroke="#000" d="M1248.28,-300.34C1230.35,-289.31 1209.77,-277.72 1190,-269 1095.46,-227.3 986.81,-192.64 892.45,-166.44"/><polygon fill="#fff" stroke="#000" points="893.35 -163.06 882.78 -163.77 891.49 -169.81 893.35 -163.06"/></g></g></svg>