<svg xmlns="http://www.w3.org/2000/svg" xmlns:xlink="http://www.w3.org/1999/xlink" width="1271pt" height="515pt" viewBox="0 0 1270.58 515"><g id="graph0" class="graph" transform="scale(1 1) rotate(0) translate(4 511)"><polygon fill="#fff" stroke="transparent" points="-4 4 -4 -511 1266.58 -511 1266.58 4 -4 4"/><g id="node1" class="node"><title>ActionAffordance</title><polygon fill="#8ccbf2" stroke="transparent" points="561.58 -254.5 561.58 -275.5 722.58 -275.5 722.58 -254.5 561.58 -254.5"/><polygon fill="none" stroke="#8ccbf2" points="561.58 -254.5 561.58 -275.5 722.58 -275.5 722.58 -254.5 561.58 -254.5"/><text x="575.58" y="-262.3" fill="#c83500" font-family="mono" font-size="14" font-weight="bold" text-anchor="start">ActionAffordance</text><polygon fill="#def" stroke="transparent" points="561.58 -233.5 561.58 -254.5 722.58 -254.5 722.58 -233.5 561.58 -233.5"/><polygon fill="none" stroke="#8ccbf2" points="561.58 -233.5 561.58 -254.5 722.58 -254.5 722.58 -233.5 561.58 -233.5"/><text x="564.58" y="-241.3" fill="#c83500" font-family="mono" font-size="14" text-anchor="start">safe</text><text x="598.58" y="-241.3" font-family="Times,serif" font-size="14" text-anchor="start">:</text><text x="612.58" y="-241.3" fill="#c83500" font-family="mono" font-size="14" text-anchor="start">boolean</text><polygon fill="#def" stroke="transparent" points="561.58 -212.5 561.58 -233.5 722.58 -233.5 722.58 -212.5 561.58 -212.5"/><polygon fill="none" stroke="#8ccbf2" points="561.58 -212.5 561.58 -233.5 722.58 -233.5 722.58 -212.5 561.58 -212.5"/><text x="564.58" y="-220.3" fill="#c83500" font-family="mono" font-size="14" text-anchor="start">idempotent</text><text x="647.58" y="-220.3" font-family="Times,serif" font-size="14" text-anchor="start">:</text><text x="661.58" y="-220.3" fill="#c83500" font-family="mono" font-size="14" text-anchor="start">boolean</text></g><g id="node3" class="node"><title>InteractionAffordance</title><polygon fill="#8ccbf2" stroke="transparent" points="332.58 -132.5 332.58 -153.5 765.58 -153.5 765.58 -132.5 332.58 -132.5"/><polygon fill="none" stroke="#8ccbf2" points="332.58 -132.5 332.58 -153.5 765.58 -153.5 765.58 -132.5 332.58 -132.5"/><text x="462.08" y="-140.3" fill="#c83500" font-family="mono" font-size="14" font-weight="bold" text-anchor="start">InteractionAffordance</text><polygon fill="#def" stroke="transparent" points="332.58 -111.5 332.58 -132.5 765.58 -132.5 765.58 -111.5 332.58 -111.5"/><polygon fill="none" stroke="#8ccbf2" points="332.58 -111.5 332.58 -132.5 765.58 -132.5 765.58 -111.5 332.58 -111.5"/><text x="335.58" y="-119.3" fill="#c83500" font-family="mono" font-size="14" text-anchor="start">title</text><text x="377.58" y="-119.3" font-family="Times,serif" font-size="14" text-anchor="start">: Map of</text><text x="445.58" y="-119.3" fill="#c83500" font-family="mono" font-size="14" text-anchor="start">string</text><text x="495.58" y="-119.3" fill="#c83500" font-family="mono" font-size="14" text-anchor="start">titles</text><text x="545.58" y="-119.3" font-family="Times,serif" font-size="14" text-anchor="start">: Map of</text><text x="613.58" y="-119.3" fill="#c83500" font-family="mono" font-size="14" text-anchor="start">string</text><polygon fill="#def" stroke="transparent" points="332.58 -90.5 332.58 -111.5 765.58 -111.5 765.58 -90.5 332.58 -90.5"/><polygon fill="none" stroke="#8ccbf2" points="332.58 -90.5 332.58 -111.5 765.58 -111.5 765.58 -90.5 332.58 -90.5"/><text x="335.58" y="-98.3" fill="#c83500" font-family="mono" font-size="14" text-anchor="start">description</text><text x="426.58" y="-98.3" font-family="Times,serif" font-size="14" text-anchor="start">: Map of</text><text x="494.58" y="-98.3" fill="#c83500" font-family="mono" font-size="14" text-anchor="start">string</text><text x="544.58" y="-98.3" fill="#c83500" font-family="mono" font-size="14" text-anchor="start">descriptions</text><text x="644.58" y="-98.3" font-family="Times,serif" font-size="14" text-anchor="start">: Map of</text><text x="712.58" y="-98.3" fill="#c83500" font-family="mono" font-size="14" text-anchor="start">string</text></g><g id="edge15" class="edge"><title>ActionAffordance-&gt;InteractionAffordance</title><path fill="none" stroke="#000" d="M614.68,-208.79C604.37,-195.48 592.48,-180.14 581.65,-166.17"/><polygon fill="#fff" stroke="#000" points="584.31 -163.89 575.42 -158.13 578.78 -168.18 584.31 -163.89"/></g><g id="node9" class="node"><title>DataSchema</title><polygon fill="#f2f2f2" stroke="transparent" points="247.58 -7 247.58 -28 336.58 -28 336.58 -7 247.58 -7"/><polygon fill="none" stroke="#8c8c8c" points="247.58 -7 247.58 -28 336.58 -28 336.58 -7 247.58 -7"/><text x="250.58" y="-14.8" font-family="mono" font-size="14" font-weight="bold" text-anchor="start">DataSchema</text></g><g id="edge4" class="edge"><title>ActionAffordance-&gt;DataSchema</title><path fill="none" stroke="#000" d="M728.58,-208.94C749.64,-196.21 769.53,-179.48 781.58,-158 797.02,-130.48 802.31,-110.8 781.58,-87 753.91,-55.23 480.75,-32.21 354.71,-23.19"/><polygon fill="#000" stroke="#000" points="354.66 -19.68 344.44 -22.47 354.17 -26.66 354.66 -19.68"/><text x="795.58" y="-118.8" fill="#c83500" font-family="mono" font-size="14" text-anchor="start">input</text><text x="358.44" y="-26.27" font-family="Times,serif" font-size="14" text-anchor="middle">0..1</text></g><g id="edge5" class="edge"><title>ActionAffordance-&gt;DataSchema</title><path fill="none" stroke="#000" d="M730.31,-210.98C780.65,-191.6 834.94,-168.74 841.58,-158 858.17,-131.16 860.91,-111.94 841.58,-87 812.08,-48.93 492.24,-28.81 354.3,-21.85"/><polygon fill="#000" stroke="#000" points="354.45 -18.36 344.29 -21.36 354.11 -25.35 354.45 -18.36"/><text x="855.58" y="-118.8" fill="#c83500" font-family="mono" font-size="14" text-anchor="start">output</text><text x="358.29" y="-10.16" font-family="Times,serif" font-size="14" text-anchor="middle">0..1</text></g><g id="node2" class="node"><title>EventAffordance</title><polygon fill="#8ccbf2" stroke="transparent" points="140.58 -233.5 140.58 -254.5 270.58 -254.5 270.58 -233.5 140.58 -233.5"/><polygon fill="none" stroke="#8ccbf2" points="140.58 -233.5 140.58 -254.5 270.58 -254.5 270.58 -233.5 140.58 -233.5"/><text x="143.58" y="-241.3" fill="#c83500" font-family="mono" font-size="14" font-weight="bold" text-anchor="start">EventAffordance</text></g><g id="edge16" class="edge"><title>EventAffordance-&gt;InteractionAffordance</title><path fill="none" stroke="#000" d="M254.36,-226.43C302.57,-209.57 377.93,-183.2 440.31,-161.38"/><polygon fill="#fff" stroke="#000" points="441.53 -164.66 449.81 -158.05 439.22 -158.05 441.53 -164.66"/></g><g id="edge6" class="edge"><title>EventAffordance-&gt;DataSchema</title><path fill="none" stroke="#000" d="M132.54,-231.19C90.04,-219.87 39.81,-198.4 13.58,-158 -3.6,-131.53 -5.19,-112.36 13.58,-87 38.92,-52.77 154.99,-33.89 228.92,-25.15"/><polygon fill="#000" stroke="#000" points="229.52 -28.6 239.05 -23.99 228.72 -21.65 229.52 -28.6"/><text x="13.58" y="-118.8" fill="#c83500" font-family="mono" font-size="14" text-anchor="start">subscription</text><text x="225.05" y="-12.79" font-family="Times,serif" font-size="14" text-anchor="middle">0..1</text></g><g id="edge7" class="edge"><title>EventAffordance-&gt;DataSchema</title><path fill="none" stroke="#000" d="M189.98,-226.38C176.32,-210.14 157.45,-184.36 149.58,-158 140.56,-127.76 135.79,-115.38 149.58,-87 164.41,-56.5 198.22,-39.59 229.13,-30.26"/><polygon fill="#000" stroke="#000" points="230.35 -33.56 239.03 -27.49 228.46 -26.82 230.35 -33.56"/><text x="149.58" y="-118.8" fill="#c83500" font-family="mono" font-size="14" text-anchor="start">data</text><text x="225.03" y="-31.29" font-family="Times,serif" font-size="14" text-anchor="middle">0..1</text></g><g id="edge8" class="edge"><title>EventAffordance-&gt;DataSchema</title><path fill="none" stroke="#000" d="M202.49,-226.46C197.91,-196.52 192.1,-133.26 214.58,-87 223.33,-69 239.21,-53.71 254.28,-42.22"/><polygon fill="#000" stroke="#000" points="256.49 -44.94 262.52 -36.23 252.37 -39.28 256.49 -44.94"/><text x="214.58" y="-118.8" fill="#c83500" font-family="mono" font-size="14" text-anchor="start">cancellation</text><text x="276.52" y="-40.03" font-family="Times,serif" font-size="14" text-anchor="middle">0..1</text></g><g id="node7" class="node"><title>Form</title><polygon fill="#f2f2f2" stroke="transparent" points="966.58 -7 966.58 -28 1006.58 -28 1006.58 -7 966.58 -7"/><polygon fill="none" stroke="#8c8c8c" points="966.58 -7 966.58 -28 1006.58 -28 1006.58 -7 966.58 -7"/><text x="969.58" y="-14.8" font-family="mono" font-size="14" font-weight="bold" text-anchor="start">Form</text></g><g id="edge1" class="edge"><title>InteractionAffordance-&gt;Form</title><path fill="none" stroke="#000" d="M696.26,-86.94C785.57,-66.04 892.65,-40.98 948.47,-27.92"/><polygon fill="#000" stroke="#000" points="949.35 -31.31 958.29 -25.62 947.75 -24.49 949.35 -31.31"/><text x="832.58" y="-57.8" fill="#c83500" font-family="mono" font-size="14" text-anchor="start">forms</text><text x="945.79" y="-29.42" font-family="Times,serif" font-size="14" text-anchor="middle">1..*</text></g><g id="edge13" class="edge"><title>InteractionAffordance-&gt;DataSchema</title><path fill="none" stroke="#000" d="M461.93,-86.94C422.81,-71.34 377.87,-53.41 343.98,-39.9"/><polygon fill="#000" stroke="#000" points="344.86 -36.48 334.28 -36.03 342.27 -42.98 344.86 -36.48"/><text x="412.58" y="-57.8" fill="#c83500" font-family="mono" font-size="14" text-anchor="start">uriVariables</text><text x="321.78" y="-39.83" font-family="Times,serif" font-size="14" text-anchor="middle">0..*</text></g><g id="node4" class="node"><title>PropertyAffordance</title><polygon fill="#8ccbf2" stroke="transparent" points="366.58 -244.5 366.58 -265.5 527.58 -265.5 527.58 -244.5 366.58 -244.5"/><polygon fill="none" stroke="#8ccbf2" points="366.58 -244.5 366.58 -265.5 527.58 -265.5 527.58 -244.5 366.58 -244.5"/><text x="372.58" y="-252.3" fill="#c83500" font-family="mono" font-size="14" font-weight="bold" text-anchor="start">PropertyAffordance</text><polygon fill="#def" stroke="transparent" points="366.58 -223.5 366.58 -244.5 527.58 -244.5 527.58 -223.5 366.58 -223.5"/><polygon fill="none" stroke="#8ccbf2" points="366.58 -223.5 366.58 -244.5 527.58 -244.5 527.58 -223.5 366.58 -223.5"/><text x="369.58" y="-231.3" fill="#c83500" font-family="mono" font-size="14" text-anchor="start">observable</text><text x="452.58" y="-231.3" font-family="Times,serif" font-size="14" text-anchor="start">:</text><text x="466.58" y="-231.3" fill="#c83500" font-family="mono" font-size="14" text-anchor="start">boolean</text></g><g id="edge17" class="edge"><title>PropertyAffordance-&gt;InteractionAffordance</title><path fill="none" stroke="#000" d="M467.22,-219.22C480.15,-204.01 497.16,-184 512.29,-166.2"/><polygon fill="#fff" stroke="#000" points="515.27 -168.1 519.08 -158.21 509.94 -163.56 515.27 -168.1"/></g><g id="node5" class="node"><title>Thing</title><polygon fill="#8ccbf2" stroke="transparent" points="655.58 -482 655.58 -503 1088.58 -503 1088.58 -482 655.58 -482"/><polygon fill="none" stroke="#8ccbf2" points="655.58 -482 655.58 -503 1088.58 -503 1088.58 -482 655.58 -482"/><text x="851.08" y="-489.8" fill="#c83500" font-family="mono" font-size="14" font-weight="bold" text-anchor="start">Thing</text><polygon fill="#def" stroke="transparent" points="655.58 -461 655.58 -482 1088.58 -482 1088.58 -461 655.58 -461"/><polygon fill="none" stroke="#8ccbf2" points="655.58 -461 655.58 -482 1088.58 -482 1088.58 -461 655.58 -461"/><text x="658.58" y="-468.8" fill="#c83500" font-family="mono" font-size="14" text-anchor="start">@context</text><text x="725.58" y="-468.8" font-family="Times,serif" font-size="14" text-anchor="start">:</text><text x="739.58" y="-468.8" fill="#c83500" font-family="mono" font-size="14" font-style="italic" text-anchor="start">anyURI</text><text x="789.58" y="-468.8" font-family="Times,serif" font-size="14" font-style="italic" text-anchor="start">or Array</text><text x="858.58" y="-468.8" font-family="Times,serif" font-size="14" font-style="italic" text-anchor="start">(mandatory)</text><polygon fill="#def" stroke="transparent" points="655.58 -440 655.58 -461 1088.58 -461 1088.58 -440 655.58 -440"/><polygon fill="none" stroke="#8ccbf2" points="655.58 -440 655.58 -461 1088.58 -461 1088.58 -440 655.58 -440"/><text x="658.58" y="-447.8" fill="#c83500" font-family="mono" font-size="14" text-anchor="start">@type</text><text x="700.58" y="-447.8" font-family="Times,serif" font-size="14" text-anchor="start">:</text><text x="714.58" y="-447.8" font-family="Times,serif" font-size="14" font-style="italic" text-anchor="start">(Array of)</text><text x="787.58" y="-447.8" fill="#c83500" font-family="mono" font-size="14" text-anchor="start">string</text><polygon fill="#def" stroke="transparent" points="655.58 -419 655.58 -440 1088.58 -440 1088.58 -419 655.58 -419"/><polygon fill="none" stroke="#8ccbf2" points="655.58 -419 655.58 -440 1088.58 -440 1088.58 -419 655.58 -419"/><text x="658.58" y="-426.8" fill="#c83500" font-family="mono" font-size="14" text-anchor="start">id</text><text x="675.58" y="-426.8" font-family="Times,serif" font-size="14" text-anchor="start">:</text><text x="689.58" y="-426.8" fill="#c83500" font-family="mono" font-size="14" text-anchor="start">anyURI</text><text x="744.58" y="-426.8" font-family="Times,serif" font-size="14" font-style="italic" text-anchor="start">(mandatory)</text><polygon fill="#def" stroke="transparent" points="655.58 -398 655.58 -419 1088.58 -419 1088.58 -398 655.58 -398"/><polygon fill="none" stroke="#8ccbf2" points="655.58 -398 655.58 -419 1088.58 -419 1088.58 -398 655.58 -398"/><text x="658.58" y="-405.8" fill="#c83500" font-family="mono" font-size="14" text-anchor="start">title</text><text x="700.58" y="-405.8" font-family="Times,serif" font-size="14" text-anchor="start">: Map of</text><text x="768.58" y="-405.8" fill="#c83500" font-family="mono" font-size="14" text-anchor="start">string</text><text x="823.58" y="-405.8" font-family="Times,serif" font-size="14" font-style="italic" text-anchor="start">(mandatory)</text><text x="911.58" y="-405.8" fill="#c83500" font-family="mono" font-size="14" text-anchor="start">titles</text><text x="961.58" y="-405.8" font-family="Times,serif" font-size="14" text-anchor="start">: Map of</text><text x="1029.58" y="-405.8" fill="#c83500" font-family="mono" font-size="14" text-anchor="start">string</text><polygon fill="#def" stroke="transparent" points="655.58 -377 655.58 -398 1088.58 -398 1088.58 -377 655.58 -377"/><polygon fill="none" stroke="#8ccbf2" points="655.58 -377 655.58 -398 1088.58 -398 1088.58 -377 655.58 -377"/><text x="658.58" y="-384.8" fill="#c83500" font-family="mono" font-size="14" text-anchor="start">description</text><text x="749.58" y="-384.8" font-family="Times,serif" font-size="14" text-anchor="start">: Map of</text><text x="817.58" y="-384.8" fill="#c83500" font-family="mono" font-size="14" text-anchor="start">string</text><text x="867.58" y="-384.8" fill="#c83500" font-family="mono" font-size="14" text-anchor="start">descriptions</text><text x="967.58" y="-384.8" font-family="Times,serif" font-size="14" text-anchor="start">: Map of</text><text x="1035.58" y="-384.8" fill="#c83500" font-family="mono" font-size="14" text-anchor="start">string</text><polygon fill="#def" stroke="transparent" points="655.58 -356 655.58 -377 1088.58 -377 1088.58 -356 655.58 -356"/><polygon fill="none" stroke="#8ccbf2" points="655.58 -356 655.58 -377 1088.58 -377 1088.58 -356 655.58 -356"/><text x="658.58" y="-363.8" fill="#c83500" font-family="mono" font-size="14" text-anchor="start">created</text><text x="716.58" y="-363.8" font-family="Times,serif" font-size="14" text-anchor="start">:</text><text x="730.58" y="-363.8" fill="#c83500" font-family="mono" font-size="14" text-anchor="start">dateTime</text><polygon fill="#def" stroke="transparent" points="655.58 -335 655.58 -356 1088.58 -356 1088.58 -335 655.58 -335"/><polygon fill="none" stroke="#8ccbf2" points="655.58 -335 655.58 -356 1088.58 -356 1088.58 -335 655.58 -335"/><text x="658.58" y="-342.8" fill="#c83500" font-family="mono" font-size="14" text-anchor="start">modified</text><text x="725.58" y="-342.8" font-family="Times,serif" font-size="14" text-anchor="start">:</text><text x="739.58" y="-342.8" fill="#c83500" font-family="mono" font-size="14" text-anchor="start">dateTime</text></g><g id="edge12" class="edge"><title>Thing-&gt;ActionAffordance</title><path fill="none" stroke="#000" d="M755.57,-330.99C734.66,-315.31 713.79,-299.66 695.74,-286.11"/><polygon fill="#000" stroke="#000" points="697.75 -283.25 687.65 -280.05 693.55 -288.85 697.75 -283.25"/><text x="729.58" y="-301.8" fill="#c83500" font-family="mono" font-size="14" text-anchor="start">actions</text><text x="675.15" y="-283.85" font-family="Times,serif" font-size="14" text-anchor="middle">0..*</text></g><g id="edge14" class="edge"><title>Thing-&gt;EventAffordance</title><path fill="none" stroke="#000" d="M647.03,-359.84C520.13,-326.97 369.64,-287.99 281.19,-265.08"/><polygon fill="#000" stroke="#000" points="281.81 -261.63 271.25 -262.51 280.05 -268.4 281.81 -261.63"/><text x="459.58" y="-301.8" fill="#c83500" font-family="mono" font-size="14" text-anchor="start">events</text><text x="258.75" y="-266.31" font-family="Times,serif" font-size="14" text-anchor="middle">0..*</text></g><g id="edge11" class="edge"><title>Thing-&gt;PropertyAffordance</title><path fill="none" stroke="#000" d="M657.22,-330.99C605.87,-310.15 554.66,-289.37 515.6,-273.51"/><polygon fill="#000" stroke="#000" points="516.52 -270.11 505.94 -269.59 513.89 -276.59 516.52 -270.11"/><text x="608.58" y="-301.8" fill="#c83500" font-family="mono" font-size="14" text-anchor="start">properties</text><text x="493.44" y="-273.39" font-family="Times,serif" font-size="14" text-anchor="middle">0..*</text></g><g id="node6" class="node"><title>VersionInfo</title><polygon fill="#8ccbf2" stroke="transparent" points="756.58 -254.5 756.58 -275.5 986.58 -275.5 986.58 -254.5 756.58 -254.5"/><polygon fill="none" stroke="#8ccbf2" points="756.58 -254.5 756.58 -275.5 986.58 -275.5 986.58 -254.5 756.58 -254.5"/><text x="826.08" y="-262.3" fill="#c83500" font-family="mono" font-size="14" font-weight="bold" text-anchor="start">VersionInfo</text><polygon fill="#def" stroke="transparent" points="756.58 -233.5 756.58 -254.5 986.58 -254.5 986.58 -233.5 756.58 -233.5"/><polygon fill="none" stroke="#8ccbf2" points="756.58 -233.5 756.58 -254.5 986.58 -254.5 986.58 -233.5 756.58 -233.5"/><text x="759.58" y="-241.3" fill="#c83500" font-family="mono" font-size="14" text-anchor="start">instance</text><text x="826.58" y="-241.3" font-family="Times,serif" font-size="14" text-anchor="start">:</text><text x="840.58" y="-241.3" fill="#c83500" font-family="mono" font-size="14" text-anchor="start">string</text><text x="895.58" y="-241.3" font-family="Times,serif" font-size="14" font-style="italic" text-anchor="start">(mandatory)</text><polygon fill="#def" stroke="transparent" points="756.58 -212.5 756.58 -233.5 986.58 -233.5 986.58 -212.5 756.58 -212.5"/><polygon fill="none" stroke="#8ccbf2" points="756.58 -212.5 756.58 -233.5 986.58 -233.5 986.58 -212.5 756.58 -212.5"/><text x="759.58" y="-220.3" fill="#c83500" font-family="mono" font-size="14" text-anchor="start">model</text><text x="801.58" y="-220.3" font-family="Times,serif" font-size="14" text-anchor="start">:</text><text x="815.58" y="-220.3" fill="#c83500" font-family="mono" font-size="14" text-anchor="start">string</text></g><g id="edge10" class="edge"><title>Thing-&gt;VersionInfo</title><path fill="none" stroke="#000" d="M871.58,-330.99C871.58,-316.86 871.58,-302.76 871.58,-290.2"/><polygon fill="#000" stroke="#000" points="875.08 -290.05 871.58 -280.05 868.08 -290.05 875.08 -290.05"/><text x="871.58" y="-301.8" fill="#c83500" font-family="mono" font-size="14" text-anchor="start">version</text><text x="859.08" y="-283.85" font-family="Times,serif" font-size="14" text-anchor="middle">0..*</text></g><g id="edge3" class="edge"><title>Thing-&gt;Form</title><path fill="none" stroke="#000" d="M972.84,-330.86C985.36,-315.27 996.3,-298.15 1003.58,-280 1035.72,-199.91 1010.77,-94.88 995.78,-46.09"/><polygon fill="#000" stroke="#000" points="999.03 -44.76 992.67 -36.29 992.36 -46.88 999.03 -44.76"/><text x="1019.58" y="-179.8" fill="#c83500" font-family="mono" font-size="14" text-anchor="start">forms</text><text x="980.17" y="-40.09" font-family="Times,serif" font-size="14" text-anchor="middle">0..*</text></g><g id="node8" class="node"><title>Link</title><polygon fill="#f2f2f2" stroke="transparent" points="1058.58 -233.5 1058.58 -254.5 1098.58 -254.5 1098.58 -233.5 1058.58 -233.5"/><polygon fill="none" stroke="#8c8c8c" points="1058.58 -233.5 1058.58 -254.5 1098.58 -254.5 1098.58 -233.5 1058.58 -233.5"/><text x="1061.58" y="-241.3" font-family="mono" font-size="14" font-weight="bold" text-anchor="start">Link</text></g><g id="edge2" class="edge"><title>Thing-&gt;Link</title><path fill="none" stroke="#000" d="M1017.18,-330.88C1023.98,-325.12 1030.49,-319.15 1036.58,-313 1048.38,-301.08 1058.44,-285.27 1065.76,-271.95"/><polygon fill="#000" stroke="#000" points="1069.02 -273.26 1070.58 -262.78 1062.83 -270 1069.02 -273.26"/><text x="1049.58" y="-301.8" fill="#c83500" font-family="mono" font-size="14" text-anchor="start">links</text><text x="1058.08" y="-266.58" font-family="Times,serif" font-size="14" text-anchor="middle">0..*</text></g><g id="node10" class="node"><title>SecurityScheme</title><polygon fill="#f2f2f2" stroke="transparent" points="1132.58 -233.5 1132.58 -254.5 1254.58 -254.5 1254.58 -233.5 1132.58 -233.5"/><polygon fill="none" stroke="#8c8c8c" points="1132.58 -233.5 1132.58 -254.5 1254.58 -254.5 1254.58 -233.5 1132.58 -233.5"/><text x="1135.58" y="-241.3" font-family="mono" font-size="14" font-weight="bold" text-anchor="start">SecurityScheme</text></g><g id="edge9" class="edge"><title>Thing-&gt;SecurityScheme</title><path fill="none" stroke="#000" d="M1063.01,-330.89C1074.13,-325.02 1085.06,-319.04 1095.58,-313 1118.89,-299.63 1143.82,-282.42 1162.7,-268.72"/><polygon fill="#000" stroke="#000" points="1164.92 -271.44 1170.92 -262.7 1160.78 -265.79 1164.92 -271.44"/><text x="1118.58" y="-301.8" fill="#c83500" font-family="mono" font-size="14" text-anchor="start">security</text><text x="1158.42" y="-266.5" font-family="Times,serif" font-size="14" text-anchor="middle">1..*</text></g></g></svg>