<svg xmlns="http://www.w3.org/2000/svg" xmlns:xlink="http://www.w3.org/1999/xlink" width="2280" height="332" viewBox="0 0 1709.5 249"><g id="graph0" class="graph" transform="scale(1 1) rotate(0) translate(4 245)"><polygon fill="#fff" stroke="transparent" points="-4 4 -4 -245 1705.5 -245 1705.5 4 -4 4"/><g id="node1" class="node"><title>APIKeySecurityScheme</title><polygon fill="#8ccbf2" stroke="transparent" points="8 -184 8 -205 180 -205 180 -184 8 -184"/><polygon fill="none" stroke="#8ccbf2" points="8 -184 8 -205 180 -205 180 -184 8 -184"/><text x="11" y="-191.8" fill="#c83500" font-family="mono" font-size="14" font-weight="bold" text-anchor="start">APIKeySecurityScheme</text><polygon fill="#def" stroke="transparent" points="8 -163 8 -184 180 -184 180 -163 8 -163"/><polygon fill="none" stroke="#8ccbf2" points="8 -163 8 -184 180 -184 180 -163 8 -163"/><text x="11" y="-170.8" fill="#c83500" font-family="mono" font-size="14" text-anchor="start">in</text><text x="28" y="-170.8" font-family="Times,serif" font-size="14" text-anchor="start">:</text><text x="42" y="-170.8" fill="#c83500" font-family="mono" font-size="14" text-anchor="start">string</text><polygon fill="#def" stroke="transparent" points="8 -142 8 -163 180 -163 180 -142 8 -142"/><polygon fill="none" stroke="#8ccbf2" points="8 -142 8 -163 180 -163 180 -142 8 -142"/><text x="11" y="-149.8" fill="#c83500" font-family="mono" font-size="14" text-anchor="start">name</text><text x="45" y="-149.8" font-family="Times,serif" font-size="14" text-anchor="start">:</text><text x="59" y="-149.8" fill="#c83500" font-family="mono" font-size="14" text-anchor="start">string</text></g><g id="node9" class="node"><title>SecurityScheme</title><polygon fill="#8ccbf2" stroke="transparent" points="676 -45.5 676 -66.5 1109 -66.5 1109 -45.5 676 -45.5"/><polygon fill="none" stroke="#8ccbf2" points="676 -45.5 676 -66.5 1109 -66.5 1109 -45.5 676 -45.5"/><text x="834.5" y="-53.3" fill="#c83500" font-family="mono" font-size="14" font-weight="bold" text-anchor="start">SecurityScheme</text><polygon fill="#def" stroke="transparent" points="676 -24.5 676 -45.5 1109 -45.5 1109 -24.5 676 -24.5"/><polygon fill="none" stroke="#8ccbf2" points="676 -24.5 676 -45.5 1109 -45.5 1109 -24.5 676 -24.5"/><text x="679" y="-32.3" fill="#c83500" font-family="mono" font-size="14" text-anchor="start">@type</text><text x="721" y="-32.3" font-family="Times,serif" font-size="14" text-anchor="start">:</text><text x="735" y="-32.3" font-family="Times,serif" font-size="14" font-style="italic" text-anchor="start">(Array of)</text><text x="808" y="-32.3" fill="#c83500" font-family="mono" font-size="14" text-anchor="start">string</text><polygon fill="#def" stroke="transparent" points="676 -3.5 676 -24.5 1109 -24.5 1109 -3.5 676 -3.5"/><polygon fill="none" stroke="#8ccbf2" points="676 -3.5 676 -24.5 1109 -24.5 1109 -3.5 676 -3.5"/><text x="679" y="-11.3" fill="#c83500" font-family="mono" font-size="14" text-anchor="start">description</text><text x="770" y="-11.3" font-family="Times,serif" font-size="14" text-anchor="start">: Map of</text><text x="838" y="-11.3" fill="#c83500" font-family="mono" font-size="14" text-anchor="start">string</text><text x="888" y="-11.3" fill="#c83500" font-family="mono" font-size="14" text-anchor="start">descriptions</text><text x="988" y="-11.3" font-family="Times,serif" font-size="14" text-anchor="start">: Map of</text><text x="1056" y="-11.3" fill="#c83500" font-family="mono" font-size="14" text-anchor="start">string</text></g><g id="edge1" class="edge"><title>APIKeySecurityScheme-&gt;SecurityScheme</title><path fill="none" stroke="#000" d="M138.01,-138.35C155.44,-126.41 176.24,-114.24 197,-107 279.49,-78.24 489.21,-59.52 656.86,-48.65"/><polygon fill="#fff" stroke="#000" points="657.33 -52.13 667.08 -48 656.88 -45.15 657.33 -52.13"/></g><g id="node2" class="node"><title>BasicSecurityScheme</title><polygon fill="#8ccbf2" stroke="transparent" points="215 -184 215 -205 378 -205 378 -184 215 -184"/><polygon fill="none" stroke="#8ccbf2" points="215 -184 215 -205 378 -205 378 -184 215 -184"/><text x="218" y="-191.8" fill="#c83500" font-family="mono" font-size="14" font-weight="bold" text-anchor="start">BasicSecurityScheme</text><polygon fill="#def" stroke="transparent" points="215 -163 215 -184 378 -184 378 -163 215 -163"/><polygon fill="none" stroke="#8ccbf2" points="215 -163 215 -184 378 -184 378 -163 215 -163"/><text x="218" y="-170.8" fill="#c83500" font-family="mono" font-size="14" text-anchor="start">in</text><text x="235" y="-170.8" font-family="Times,serif" font-size="14" text-anchor="start">:</text><text x="249" y="-170.8" fill="#c83500" font-family="mono" font-size="14" text-anchor="start">string</text><polygon fill="#def" stroke="transparent" points="215 -142 215 -163 378 -163 378 -142 215 -142"/><polygon fill="none" stroke="#8ccbf2" points="215 -142 215 -163 378 -163 378 -142 215 -142"/><text x="218" y="-149.8" fill="#c83500" font-family="mono" font-size="14" text-anchor="start">name</text><text x="252" y="-149.8" font-family="Times,serif" font-size="14" text-anchor="start">:</text><text x="266" y="-149.8" fill="#c83500" font-family="mono" font-size="14" text-anchor="start">string</text></g><g id="edge2" class="edge"><title>BasicSecurityScheme-&gt;SecurityScheme</title><path fill="none" stroke="#000" d="M339,-138.24C355.6,-126.51 375.31,-114.51 395,-107 477.53,-75.51 572.62,-57.91 657.39,-48.13"/><polygon fill="#fff" stroke="#000" points="657.86 -51.6 667.41 -47 657.08 -44.64 657.86 -51.6"/></g><g id="node3" class="node"><title>BearerSecurityScheme</title><polygon fill="#8ccbf2" stroke="transparent" points="412 -216 412 -237 590 -237 590 -216 412 -216"/><polygon fill="none" stroke="#8ccbf2" points="412 -216 412 -237 590 -237 590 -216 412 -216"/><text x="418" y="-223.8" fill="#c83500" font-family="mono" font-size="14" font-weight="bold" text-anchor="start">BearerSecurityScheme</text><polygon fill="#def" stroke="transparent" points="412 -195 412 -216 590 -216 590 -195 412 -195"/><polygon fill="none" stroke="#8ccbf2" points="412 -195 412 -216 590 -216 590 -195 412 -195"/><text x="415" y="-202.8" fill="#c83500" font-family="mono" font-size="14" text-anchor="start">alg</text><text x="440" y="-202.8" font-family="Times,serif" font-size="14" text-anchor="start">:</text><text x="454" y="-202.8" fill="#c83500" font-family="mono" font-size="14" text-anchor="start">string</text><polygon fill="#def" stroke="transparent" points="412 -174 412 -195 590 -195 590 -174 412 -174"/><polygon fill="none" stroke="#8ccbf2" points="412 -174 412 -195 590 -195 590 -174 412 -174"/><text x="415" y="-181.8" fill="#c83500" font-family="mono" font-size="14" text-anchor="start">authorization</text><text x="523" y="-181.8" font-family="Times,serif" font-size="14" text-anchor="start">:</text><text x="537" y="-181.8" fill="#c83500" font-family="mono" font-size="14" text-anchor="start">anyURI</text><polygon fill="#def" stroke="transparent" points="412 -153 412 -174 590 -174 590 -153 412 -153"/><polygon fill="none" stroke="#8ccbf2" points="412 -153 412 -174 590 -174 590 -153 412 -153"/><text x="415" y="-160.8" fill="#c83500" font-family="mono" font-size="14" text-anchor="start">format</text><text x="465" y="-160.8" font-family="Times,serif" font-size="14" text-anchor="start">:</text><text x="479" y="-160.8" fill="#c83500" font-family="mono" font-size="14" text-anchor="start">string</text><polygon fill="#def" stroke="transparent" points="412 -132 412 -153 590 -153 590 -132 412 -132"/><polygon fill="none" stroke="#8ccbf2" points="412 -132 412 -153 590 -153 590 -132 412 -132"/><text x="415" y="-139.8" fill="#c83500" font-family="mono" font-size="14" text-anchor="start">in</text><text x="432" y="-139.8" font-family="Times,serif" font-size="14" text-anchor="start">:</text><text x="446" y="-139.8" fill="#c83500" font-family="mono" font-size="14" text-anchor="start">string</text><polygon fill="#def" stroke="transparent" points="412 -111 412 -132 590 -132 590 -111 412 -111"/><polygon fill="none" stroke="#8ccbf2" points="412 -111 412 -132 590 -132 590 -111 412 -111"/><text x="415" y="-118.8" fill="#c83500" font-family="mono" font-size="14" text-anchor="start">name</text><text x="449" y="-118.8" font-family="Times,serif" font-size="14" text-anchor="start">:</text><text x="463" y="-118.8" fill="#c83500" font-family="mono" font-size="14" text-anchor="start">string</text></g><g id="edge3" class="edge"><title>BearerSecurityScheme-&gt;SecurityScheme</title><path fill="none" stroke="#000" d="M598.29,-110.88C601.2,-109.52 604.1,-108.22 607,-107 637.98,-93.91 671.93,-82.89 705.25,-73.73"/><polygon fill="#fff" stroke="#000" points="706.35 -77.06 715.1 -71.07 704.53 -70.3 706.35 -77.06"/></g><g id="node4" class="node"><title>ComboSecurityScheme</title><polygon fill="#8ccbf2" stroke="transparent" points="624 -184 624 -205 902 -205 902 -184 624 -184"/><polygon fill="none" stroke="#8ccbf2" points="624 -184 624 -205 902 -205 902 -184 624 -184"/><text x="684.5" y="-191.8" fill="#c83500" font-family="mono" font-size="14" font-weight="bold" text-anchor="start">ComboSecurityScheme</text><polygon fill="#def" stroke="transparent" points="624 -163 624 -184 902 -184 902 -163 624 -163"/><polygon fill="none" stroke="#8ccbf2" points="624 -163 624 -184 902 -184 902 -163 624 -163"/><text x="627" y="-170.8" fill="#c83500" font-family="mono" font-size="14" text-anchor="start">oneOf</text><text x="669" y="-170.8" font-family="Times,serif" font-size="14" text-anchor="start">: (Array of)</text><text x="756" y="-170.8" fill="#c83500" font-family="mono" font-size="14" text-anchor="start">string</text><text x="811" y="-170.8" font-family="Times,serif" font-size="14" font-style="italic" text-anchor="start">(mandatory)</text><polygon fill="#def" stroke="transparent" points="624 -142 624 -163 902 -163 902 -142 624 -142"/><polygon fill="none" stroke="#8ccbf2" points="624 -142 624 -163 902 -163 902 -142 624 -142"/><text x="627" y="-149.8" fill="#c83500" font-family="mono" font-size="14" text-anchor="start">allOf</text><text x="669" y="-149.8" font-family="Times,serif" font-size="14" text-anchor="start">: (Array of)</text><text x="756" y="-149.8" fill="#c83500" font-family="mono" font-size="14" text-anchor="start">string</text><text x="811" y="-149.8" font-family="Times,serif" font-size="14" font-style="italic" text-anchor="start">(mandatory)</text></g><g id="edge4" class="edge"><title>ComboSecurityScheme-&gt;SecurityScheme</title><path fill="none" stroke="#000" d="M795.89,-138.2C813.02,-120.07 834.11,-97.76 852.16,-78.65"/><polygon fill="#fff" stroke="#000" points="854.85 -80.91 859.17 -71.23 849.76 -76.1 854.85 -80.91"/></g><g id="node5" class="node"><title>DigestSecurityScheme</title><polygon fill="#8ccbf2" stroke="transparent" points="936 -195 936 -216 1108 -216 1108 -195 936 -195"/><polygon fill="none" stroke="#8ccbf2" points="936 -195 936 -216 1108 -216 1108 -195 936 -195"/><text x="939" y="-202.8" fill="#c83500" font-family="mono" font-size="14" font-weight="bold" text-anchor="start">DigestSecurityScheme</text><polygon fill="#def" stroke="transparent" points="936 -174 936 -195 1108 -195 1108 -174 936 -174"/><polygon fill="none" stroke="#8ccbf2" points="936 -174 936 -195 1108 -195 1108 -174 936 -174"/><text x="939" y="-181.8" fill="#c83500" font-family="mono" font-size="14" text-anchor="start">qop</text><text x="964" y="-181.8" font-family="Times,serif" font-size="14" text-anchor="start">:</text><text x="978" y="-181.8" fill="#c83500" font-family="mono" font-size="14" text-anchor="start">string</text><polygon fill="#def" stroke="transparent" points="936 -153 936 -174 1108 -174 1108 -153 936 -153"/><polygon fill="none" stroke="#8ccbf2" points="936 -153 936 -174 1108 -174 1108 -153 936 -153"/><text x="939" y="-160.8" fill="#c83500" font-family="mono" font-size="14" text-anchor="start">in</text><text x="956" y="-160.8" font-family="Times,serif" font-size="14" text-anchor="start">:</text><text x="970" y="-160.8" fill="#c83500" font-family="mono" font-size="14" text-anchor="start">string</text><polygon fill="#def" stroke="transparent" points="936 -132 936 -153 1108 -153 1108 -132 936 -132"/><polygon fill="none" stroke="#8ccbf2" points="936 -132 936 -153 1108 -153 1108 -132 936 -132"/><text x="939" y="-139.8" fill="#c83500" font-family="mono" font-size="14" text-anchor="start">name</text><text x="973" y="-139.8" font-family="Times,serif" font-size="14" text-anchor="start">:</text><text x="987" y="-139.8" fill="#c83500" font-family="mono" font-size="14" text-anchor="start">string</text></g><g id="edge5" class="edge"><title>DigestSecurityScheme-&gt;SecurityScheme</title><path fill="none" stroke="#000" d="M979.07,-127.93C963.95,-112.04 947.01,-94.26 932.12,-78.63"/><polygon fill="#fff" stroke="#000" points="934.43 -75.97 925 -71.15 929.36 -80.8 934.43 -75.97"/></g><g id="node6" class="node"><title>NoSecurityScheme</title><polygon fill="#8ccbf2" stroke="transparent" points="1143 -163 1143 -184 1282 -184 1282 -163 1143 -163"/><polygon fill="none" stroke="#8ccbf2" points="1143 -163 1143 -184 1282 -184 1282 -163 1143 -163"/><text x="1146" y="-170.8" fill="#c83500" font-family="mono" font-size="14" font-weight="bold" text-anchor="start">NoSecurityScheme</text></g><g id="edge6" class="edge"><title>NoSecurityScheme-&gt;SecurityScheme</title><path fill="none" stroke="#000" d="M1193.63,-155.94C1176.87,-141.17 1150.84,-120.17 1125,-107 1099.91,-94.21 1072.09,-83.3 1044.66,-74.16"/><polygon fill="#fff" stroke="#000" points="1045.58 -70.78 1034.99 -71 1043.41 -77.43 1045.58 -70.78"/></g><g id="node7" class="node"><title>OAuth2SecurityScheme</title><polygon fill="#8ccbf2" stroke="transparent" points="1316 -184 1316 -205 1513 -205 1513 -184 1316 -184"/><polygon fill="none" stroke="#8ccbf2" points="1316 -184 1316 -205 1513 -205 1513 -184 1316 -184"/><text x="1331.5" y="-191.8" fill="#c83500" font-family="mono" font-size="14" font-weight="bold" text-anchor="start">OAuth2SecurityScheme</text><polygon fill="#def" stroke="transparent" points="1316 -163 1316 -184 1513 -184 1513 -163 1316 -163"/><polygon fill="none" stroke="#8ccbf2" points="1316 -163 1316 -184 1513 -184 1513 -163 1316 -163"/><text x="1319" y="-170.8" fill="#c83500" font-family="mono" font-size="14" text-anchor="start">scopes</text><text x="1369" y="-170.8" font-family="Times,serif" font-size="14" text-anchor="start">: (Array of)</text><text x="1456" y="-170.8" fill="#c83500" font-family="mono" font-size="14" text-anchor="start">string</text><polygon fill="#def" stroke="transparent" points="1316 -142 1316 -163 1513 -163 1513 -142 1316 -142"/><polygon fill="none" stroke="#8ccbf2" points="1316 -142 1316 -163 1513 -163 1513 -142 1316 -142"/><text x="1319" y="-149.8" fill="#c83500" font-family="mono" font-size="14" text-anchor="start">flow</text><text x="1353" y="-149.8" font-family="Times,serif" font-size="14" text-anchor="start">:</text><text x="1367" y="-149.8" fill="#c83500" font-family="mono" font-size="14" text-anchor="start">string</text><text x="1422" y="-149.8" font-family="Times,serif" font-size="14" font-style="italic" text-anchor="start">(mandatory)</text></g><g id="edge7" class="edge"><title>OAuth2SecurityScheme-&gt;SecurityScheme</title><path fill="none" stroke="#000" d="M1362.63,-138.39C1343.38,-126.83 1320.87,-114.89 1299,-107 1244.56,-87.36 1183.99,-73.09 1126.58,-62.77"/><polygon fill="#fff" stroke="#000" points="1127.1 -59.31 1116.64 -61.02 1125.88 -66.2 1127.1 -59.31"/></g><g id="node8" class="node"><title>PSKSecurityScheme</title><polygon fill="#8ccbf2" stroke="transparent" points="1547 -174 1547 -195 1694 -195 1694 -174 1547 -174"/><polygon fill="none" stroke="#8ccbf2" points="1547 -174 1547 -195 1694 -195 1694 -174 1547 -174"/><text x="1550" y="-181.8" fill="#c83500" font-family="mono" font-size="14" font-weight="bold" text-anchor="start">PSKSecurityScheme</text><polygon fill="#def" stroke="transparent" points="1547 -153 1547 -174 1694 -174 1694 -153 1547 -153"/><polygon fill="none" stroke="#8ccbf2" points="1547 -153 1547 -174 1694 -174 1694 -153 1547 -153"/><text x="1550" y="-160.8" fill="#c83500" font-family="mono" font-size="14" text-anchor="start">identity</text><text x="1617" y="-160.8" font-family="Times,serif" font-size="14" text-anchor="start">:</text><text x="1631" y="-160.8" fill="#c83500" font-family="mono" font-size="14" text-anchor="start">string</text></g><g id="edge8" class="edge"><title>PSKSecurityScheme-&gt;SecurityScheme</title><path fill="none" stroke="#000" d="M1594.65,-148.74C1577.72,-134.06 1554.19,-116.42 1530,-107 1458.18,-79.03 1277.71,-60.7 1126.97,-49.76"/><polygon fill="#fff" stroke="#000" points="1126.85 -46.25 1116.63 -49.02 1126.35 -53.23 1126.85 -46.25"/></g></g></svg>